<svg width="50" height="50" viewBox="0 0 50 50" fill="none" xmlns="http://www.w3.org/2000/svg">
<path d="M0 7.14286C0 3.20313 2.80273 0 6.25 0H43.75C47.1973 0 50 3.20313 50 7.14286V42.8571C50 46.7969 47.1973 50 43.75 50H6.25C2.80273 50 0 46.7969 0 42.8571V7.14286ZM31.6211 19.029C31.1816 18.2924 30.459 17.8571 29.6875 17.8571C28.916 17.8571 28.1836 18.2924 27.7539 19.029L19.2578 33.2701L16.6699 29.5759C16.2207 28.9397 15.5469 28.5714 14.8438 28.5714C14.1406 28.5714 13.457 28.9397 13.0176 29.5759L6.76758 38.5045C6.20117 39.308 6.09375 40.4129 6.48438 41.3393C6.875 42.2656 7.69531 42.8571 8.59375 42.8571H17.9688H21.0938H41.4062C42.2754 42.8571 43.0762 42.3103 43.4766 41.4286C43.877 40.5469 43.8281 39.4866 43.3398 38.6719L31.6211 19.029ZM10.9375 17.8571C12.1807 17.8571 13.373 17.2927 14.2521 16.2881C15.1311 15.2834 15.625 13.9208 15.625 12.5C15.625 11.0792 15.1311 9.71659 14.2521 8.71193C13.373 7.70727 12.1807 7.14286 10.9375 7.14286C9.6943 7.14286 8.50201 7.70727 7.62294 8.71193C6.74386 9.71659 6.25 11.0792 6.25 12.5C6.25 13.9208 6.74386 15.2834 7.62294 16.2881C8.50201 17.2927 9.6943 17.8571 10.9375 17.8571Z" fill="white"/>
</svg>
