<svg width="50" height="50" viewBox="0 0 50 50" fill="none" xmlns="http://www.w3.org/2000/svg">
<path d="M0 10C0 4.47715 4.47715 0 10 0H40C45.5228 0 50 4.47715 50 10V40C50 45.5228 45.5228 50 40 50H10C4.47715 50 0 45.5228 0 40V10Z" fill="#C83A61"/>
<path d="M13 10C13 11.3807 11.8807 12.5 10.5 12.5C9.11929 12.5 8 11.3807 8 10C8 8.61929 9.11929 7.5 10.5 7.5C11.8807 7.5 13 8.61929 13 10Z" fill="#FBFFFE" fill-opacity="0.996078"/>
<path d="M23 10C23 11.3807 21.8807 12.5 20.5 12.5C19.1193 12.5 18 11.3807 18 10C18 8.61929 19.1193 7.5 20.5 7.5C21.8807 7.5 23 8.61929 23 10Z" fill="#FBFFFE" fill-opacity="0.996078"/>
<path d="M33 10C33 11.3807 31.8807 12.5 30.5 12.5C29.1193 12.5 28 11.3807 28 10C28 8.61929 29.1193 7.5 30.5 7.5C31.8807 7.5 33 8.61929 33 10Z" fill="#FBFFFE" fill-opacity="0.996078"/>
<path d="M43 10C43 11.3807 41.8807 12.5 40.5 12.5C39.1193 12.5 38 11.3807 38 10C38 8.61929 39.1193 7.5 40.5 7.5C41.8807 7.5 43 8.61929 43 10Z" fill="#FBFFFE" fill-opacity="0.996078"/>
<path d="M13 20C13 21.3807 11.8807 22.5 10.5 22.5C9.11929 22.5 8 21.3807 8 20C8 18.6193 9.11929 17.5 10.5 17.5C11.8807 17.5 13 18.6193 13 20Z" fill="#FBFFFE" fill-opacity="0.996078"/>
<path d="M23 20C23 21.3807 21.8807 22.5 20.5 22.5C19.1193 22.5 18 21.3807 18 20C18 18.6193 19.1193 17.5 20.5 17.5C21.8807 17.5 23 18.6193 23 20Z" fill="#FBFFFE" fill-opacity="0.996078"/>
<path d="M33 20C33 21.3807 31.8807 22.5 30.5 22.5C29.1193 22.5 28 21.3807 28 20C28 18.6193 29.1193 17.5 30.5 17.5C31.8807 17.5 33 18.6193 33 20Z" fill="#FBFFFE" fill-opacity="0.996078"/>
<path d="M43 20C43 21.3807 41.8807 22.5 40.5 22.5C39.1193 22.5 38 21.3807 38 20C38 18.6193 39.1193 17.5 40.5 17.5C41.8807 17.5 43 18.6193 43 20Z" fill="#FBFFFE" fill-opacity="0.996078"/>
<path d="M13 30C13 31.3807 11.8807 32.5 10.5 32.5C9.11929 32.5 8 31.3807 8 30C8 28.6193 9.11929 27.5 10.5 27.5C11.8807 27.5 13 28.6193 13 30Z" fill="#FBFFFE" fill-opacity="0.996078"/>
<path d="M23 30C23 31.3807 21.8807 32.5 20.5 32.5C19.1193 32.5 18 31.3807 18 30C18 28.6193 19.1193 27.5 20.5 27.5C21.8807 27.5 23 28.6193 23 30Z" fill="#FBFFFE" fill-opacity="0.996078"/>
<path d="M33 30C33 31.3807 31.8807 32.5 30.5 32.5C29.1193 32.5 28 31.3807 28 30C28 28.6193 29.1193 27.5 30.5 27.5C31.8807 27.5 33 28.6193 33 30Z" fill="#FBFFFE" fill-opacity="0.996078"/>
<path d="M43 30C43 31.3807 41.8807 32.5 40.5 32.5C39.1193 32.5 38 31.3807 38 30C38 28.6193 39.1193 27.5 40.5 27.5C41.8807 27.5 43 28.6193 43 30Z" fill="#FBFFFE" fill-opacity="0.996078"/>
<path d="M13 40C13 41.3807 11.8807 42.5 10.5 42.5C9.11929 42.5 8 41.3807 8 40C8 38.6193 9.11929 37.5 10.5 37.5C11.8807 37.5 13 38.6193 13 40Z" fill="#FBFFFE" fill-opacity="0.996078"/>
<path d="M23 40C23 41.3807 21.8807 42.5 20.5 42.5C19.1193 42.5 18 41.3807 18 40C18 38.6193 19.1193 37.5 20.5 37.5C21.8807 37.5 23 38.6193 23 40Z" fill="#FBFFFE" fill-opacity="0.996078"/>
<path d="M33 40C33 41.3807 31.8807 42.5 30.5 42.5C29.1193 42.5 28 41.3807 28 40C28 38.6193 29.1193 37.5 30.5 37.5C31.8807 37.5 33 38.6193 33 40Z" fill="#FBFFFE" fill-opacity="0.996078"/>
<path d="M43 40C43 41.3807 41.8807 42.5 40.5 42.5C39.1193 42.5 38 41.3807 38 40C38 38.6193 39.1193 37.5 40.5 37.5C41.8807 37.5 43 38.6193 43 40Z" fill="#FBFFFE" fill-opacity="0.996078"/>
</svg>
