<svg width="50" height="50" viewBox="0 0 50 50" fill="none" xmlns="http://www.w3.org/2000/svg">
<rect x="8" y="8" width="34" height="33" fill="white"/>
<path fill-rule="evenodd" clip-rule="evenodd" d="M15 0C6.71573 0 0 6.71573 0 15V35C0 43.2843 6.71573 50 15 50H35C43.2843 50 50 43.2843 50 35V15C50 6.71573 43.2843 0 35 0H15ZM25.3542 13.514C29.2843 13.3431 31.6077 14.7387 32.9201 16.5389C34.2977 18.4286 34.7655 21.0492 34.3593 23.5668C33.9486 26.1123 32.7154 28.1598 31.1785 29.1083C29.8194 29.947 27.7861 30.1917 24.9294 28.2122C23.6248 27.3078 23.3364 25.5658 24.1435 23.8149C24.5307 22.9751 25.0939 22.3589 25.6399 22.0472C26.1316 21.7665 26.5993 21.7225 27.1114 21.9493C28.1214 22.3965 29.3027 21.9403 29.7499 20.9303C30.1972 19.9203 29.7409 18.739 28.7309 18.2918C26.9246 17.492 25.12 17.7381 23.6569 18.5733C22.2479 19.3776 21.1734 20.7032 20.5109 22.1403C19.2187 24.9434 19.1832 29.0957 22.6504 31.4995L22.6507 31.4997C26.5158 34.1782 30.2826 34.3615 33.2791 32.5123C36.0978 30.7729 37.7755 27.506 38.3083 24.2039C38.8455 20.874 38.2892 17.1137 36.1523 14.1825C33.9502 11.1618 30.2686 9.29648 25.1804 9.51775C20.2774 9.73097 16.6749 11.686 14.3237 14.6485C12.0179 17.5537 11.0518 21.251 11.002 24.7937C10.9523 28.3354 11.8131 31.9108 13.3838 34.7009C14.9295 37.4466 17.3933 39.7874 20.662 39.9959C21.7644 40.0661 22.715 39.2295 22.7853 38.1272C22.8555 37.0248 22.0189 36.0743 20.9166 36.004C19.5587 35.9174 18.0835 34.8952 16.8694 32.7387C15.6804 30.6265 14.9608 27.7604 15.0017 24.8498C15.0425 21.9403 15.8381 19.1747 17.4569 17.1351C19.0303 15.1527 21.5152 13.6809 25.3542 13.514Z" fill="#C83A61"/>
</svg>
