<svg width="48" height="49" viewBox="0 0 48 49" fill="none" xmlns="http://www.w3.org/2000/svg">
<path d="M43.4183 17.4314C39.0765 17.4314 37.3013 14.1768 39.4603 10.1848C40.7076 7.87095 39.964 4.92145 37.7811 3.59926L33.6312 1.08202C31.7361 -0.113034 29.2894 0.598913 28.1619 2.60762L27.8981 3.09073C25.7391 7.08272 22.1889 7.08272 20.006 3.09073L19.7421 2.60762C18.6627 0.598913 16.2159 -0.113034 14.3208 1.08202L10.1709 3.59926C7.98801 4.92145 7.24438 7.89637 8.49175 10.2102C10.6747 14.1768 8.89955 17.4314 4.55772 17.4314C2.06297 17.4314 0 19.5926 0 22.2625V26.7375C0 29.3819 2.03898 31.5686 4.55772 31.5686C8.89955 31.5686 10.6747 34.8232 8.49175 38.8152C7.24438 41.1291 7.98801 44.0785 10.1709 45.4007L14.3208 47.918C16.2159 49.113 18.6627 48.4011 19.7901 46.3924L20.054 45.9093C22.2129 41.9173 25.7631 41.9173 27.946 45.9093L28.2099 46.3924C29.3373 48.4011 31.7841 49.113 33.6792 47.918L37.8291 45.4007C40.012 44.0785 40.7556 41.1036 39.5082 38.8152C37.3253 34.8232 39.1005 31.5686 43.4423 31.5686C45.937 31.5686 48 29.4074 48 26.7375V22.2625C47.976 19.6181 45.937 17.4314 43.4183 17.4314ZM23.988 32.7637C19.6942 32.7637 16.1919 29.0514 16.1919 24.5C16.1919 19.9486 19.6942 16.2363 23.988 16.2363C28.2819 16.2363 31.7841 19.9486 31.7841 24.5C31.7841 29.0514 28.2819 32.7637 23.988 32.7637Z" fill="#292D32"/>
</svg>
