<svg width="50" height="46" viewBox="0 0 50 46" fill="none" xmlns="http://www.w3.org/2000/svg">
<path d="M41.6875 1.38095C46.7578 6.56067 50 14.4826 50 23.3481C50 32.2136 46.7578 40.1257 41.6875 45.3152C40.8828 46.1408 39.7031 45.9836 39.0469 44.9712C38.3906 43.9588 38.5156 42.4747 39.3203 41.6491C43.5547 37.3245 46.25 30.7393 46.25 23.3481C46.25 15.9569 43.5547 9.37167 39.3203 5.03722C38.5156 4.21161 38.3984 2.72748 39.0469 1.71512C39.6953 0.702768 40.8828 0.555338 41.6875 1.37112V1.38095ZM36.9609 8.70332C40.3359 12.163 42.5 17.441 42.5 23.3481C42.5 29.2551 40.3359 34.5331 36.9609 37.9928C36.1563 38.8184 34.9766 38.6612 34.3203 37.6488C33.6641 36.6365 33.7891 35.1523 34.5937 34.3267C37.1328 31.732 38.75 27.7808 38.75 23.3481C38.75 18.9153 37.1328 14.9642 34.5937 12.3596C33.7891 11.534 33.6719 10.0499 34.3203 9.0375C34.9687 8.02514 36.1563 7.87771 36.9609 8.6935V8.70332ZM32.2344 16.0257C33.9141 17.7555 35 20.3896 35 23.3481C35 26.3065 33.9141 28.9406 32.2344 30.6705C31.4297 31.4961 30.25 31.3388 29.5937 30.3264C28.9375 29.3141 29.0625 27.83 29.8672 27.0044C30.7109 26.1394 31.25 24.8224 31.25 23.3481C31.25 21.8738 30.7109 20.5567 29.8672 19.682C29.0625 18.8564 28.9453 17.3722 29.5937 16.3599C30.2422 15.3475 31.4297 15.2001 32.2344 16.0159V16.0257ZM23.5234 1.60701C24.4219 2.1181 25 3.23857 25 4.47699V42.2192C25 43.4576 24.4219 44.5781 23.5234 45.0891C22.625 45.6002 21.5703 45.3938 20.8359 44.5682L10.2969 32.7836H5C2.24219 32.7836 0 29.9628 0 26.4933V20.2029C0 16.7334 2.24219 13.9125 5 13.9125H10.2969L20.8359 2.12793C21.5703 1.30232 22.625 1.10574 23.5234 1.60701Z" fill="white"/>
</svg>
