<svg width="41" height="59" viewBox="0 0 41 59" fill="none" xmlns="http://www.w3.org/2000/svg">
<path d="M22.0238 0H24.845C28.5143 0.340326 31.7061 1.61943 34.4205 3.8373C42.0192 10.0496 43.1975 21.0441 37.1113 28.7832C37.1001 28.7982 37.0941 28.8164 37.0941 28.8351C37.0873 33.1741 37.088 37.7181 37.0964 42.4673C37.0998 44.2558 36.9488 45.9647 36.5564 47.5837C36.4405 48.06 36.2105 48.8632 35.8666 49.9933C35.4235 51.4498 35.1866 53.0259 35.1561 54.7213C35.147 55.2238 35.1363 55.7285 35.1241 56.2355C35.0875 57.6771 33.9 58.8248 32.4665 59H17.2944C16.476 58.8901 15.8167 58.5356 15.3164 57.9364C14.8084 57.3291 14.6391 56.6204 14.6219 55.8046C14.5975 54.6791 14.2856 53.6047 13.6861 52.5814C13.4482 52.175 13.0085 51.6112 12.367 50.8898C8.43463 46.4648 4.68144 42.2253 1.10749 38.1714C-1.54666 35.1603 0.913006 30.5106 4.85419 31.0315C5.70916 31.1444 6.49397 31.5201 7.20861 32.1585C8.72407 33.5105 10.2018 34.825 11.6417 36.1018C11.6898 36.144 11.7138 36.1333 11.7138 36.0695V30.9139C11.7138 30.8968 11.7103 30.8799 11.7034 30.864C11.6965 30.8482 11.6864 30.8338 11.6738 30.8217C8.90292 28.2712 7.10297 25.1637 6.27393 21.4993C4.70661 14.5795 7.54267 7.36578 13.1564 3.2934C15.7702 1.39741 18.7259 0.299609 22.0238 0ZM37.2074 25.1015C38.5703 22.4473 39.1713 19.6774 39.0104 16.792C38.3915 5.71908 26.8688 -1.2549 16.8642 3.40748C9.87763 6.6617 6.31741 14.5414 8.40984 21.9913C9.02762 24.1931 10.1099 26.1985 11.6566 28.0077C11.6902 28.0469 11.7069 28.0404 11.7069 27.9881C11.7153 23.494 11.7172 18.9991 11.7127 14.5034C11.7119 13.6637 11.7649 13.0703 11.8717 12.723C12.1973 11.6606 12.8201 10.8708 13.7399 10.3538C14.9571 9.66932 16.2091 9.65549 17.4957 10.3123C17.5499 10.3407 17.5766 10.3242 17.5758 10.2628C17.5724 10.015 17.5598 9.73269 17.5884 9.49762C18.0071 6.09475 22.1531 4.55291 24.4869 7.33928C25.1562 8.139 25.4376 9.17611 25.3747 10.2697C25.3709 10.3311 25.396 10.3473 25.4502 10.3181C28.292 8.79123 31.4289 11.0821 31.2298 14.2107C31.226 14.2676 31.2493 14.2825 31.2996 14.2556C33.5533 13.0319 36.1652 14.2349 36.9214 16.618C37.0404 16.9921 37.0987 17.4599 37.0964 18.0215C37.088 20.4245 37.0873 22.798 37.0941 25.1418C37.0949 25.2302 37.1201 25.2379 37.1696 25.1649C37.1834 25.1457 37.1959 25.1246 37.2074 25.1015ZM19.4452 26.9003C19.2495 27.5064 18.4544 27.7127 17.9762 27.3474C17.7093 27.1431 17.5758 26.898 17.5758 26.6122C17.5743 22.6935 17.5773 18.6238 17.585 14.4031C17.5865 13.8055 17.5487 13.3898 17.4717 13.1563C16.8871 11.3817 14.4858 11.3702 13.8131 13.0964C13.7094 13.3614 13.6575 13.7006 13.6575 14.1139C13.6636 22.5352 13.6648 30.6128 13.6609 38.3465C13.6609 38.9999 12.9997 39.5012 12.3956 39.288C12.2561 39.2381 12.0463 39.0883 11.7664 38.8386C10.029 37.2921 8.18103 35.6478 6.22245 33.9054C5.7923 33.5228 5.46968 33.2801 5.2546 33.1771C4.04307 32.5952 2.68511 33.1679 2.1417 34.3687C1.75158 35.2283 1.96895 36.1963 2.59931 36.9096C6.28309 41.0764 10.0164 45.291 13.7994 49.5531C14.4507 50.2867 14.8927 50.8318 15.1253 51.1883C16.0916 52.6663 16.5782 54.2646 16.5851 55.9832C16.5874 56.5985 17.0164 57.0364 17.6387 57.0364C22.5489 57.0372 27.392 57.0368 32.1679 57.0353C32.9516 57.0341 33.2239 56.4153 33.2033 55.7101C33.1312 53.2786 33.4824 50.9659 34.2157 48.6911C34.8656 46.6745 35.147 44.6821 35.1458 42.563C35.139 34.3637 35.1386 26.139 35.1447 17.889C35.1458 16.9948 34.6699 16.2054 33.8554 15.8781C32.5603 15.3584 31.2344 16.3495 31.2333 17.7426C31.2317 20.4399 31.2321 23.3549 31.2344 26.4878C31.2355 27.866 29.2873 27.8729 29.285 26.4878C29.2796 21.9491 29.2804 17.783 29.2873 13.9895C29.2884 13.3292 29.0825 12.7622 28.5928 12.3209C27.5701 11.3955 26.0325 11.7712 25.52 13.0296C25.4262 13.26 25.3793 13.5715 25.3793 13.9641C25.3823 18.2408 25.3834 22.3946 25.3827 26.4255C25.3827 27.8948 23.4252 27.8556 23.4252 26.5166C23.423 21.3111 23.4245 15.8958 23.4298 10.2708C23.4306 9.73615 23.3894 9.36241 23.3063 9.14961C22.6153 7.37731 20.2391 7.496 19.6328 9.25562C19.5558 9.47995 19.5172 9.76688 19.5172 10.1164C19.5241 15.6769 19.5271 21.0871 19.5264 26.3472C19.5264 26.5492 19.4993 26.7336 19.4452 26.9003Z" fill="white"/>
</svg>
