<svg width="211" height="190" viewBox="0 0 211 190" fill="none" xmlns="http://www.w3.org/2000/svg">
<path d="M110.058 10.6505C102.25 6.88979 93.4633 11.4832 90.7479 19.2464C89.0296 24.1532 91.4512 29.4182 96.8019 29.9465C99.4728 30.2151 102.375 29.3286 104.975 28.4511C107.272 27.6811 110.263 28.7377 110.601 31.5403C110.863 33.6594 110.139 35.1279 108.429 35.9457C102.892 38.5782 94.5672 39.6347 89.1275 35.9725C80.7232 30.3225 79.8952 19.8194 85.2191 11.6623C91.015 2.77093 102.01 -1.67924 112.204 2.44858C133.313 10.9907 133.482 36.8679 119.104 51.472C114.462 56.1878 109.138 60.1425 103.132 63.3361C98.3599 65.8701 94.3981 59.2799 98.9297 56.3072C108.963 49.7439 118.071 43.9685 120.439 31.6298C122.14 22.828 118.151 14.5365 110.058 10.6505Z" fill="white"/>
<path d="M211 108.366V110.094C209.967 123.167 200.227 132.64 186.98 132.067C186.671 132.055 186.469 132.198 186.374 132.497C180.623 150.542 169.946 164.654 154.342 174.832C135.076 187.391 113.622 191.743 89.9822 187.887C59.9258 182.98 33.7689 162.529 24.6968 132.595C24.6018 132.279 24.3852 132.121 24.0469 132.121C12.9301 132.181 5.39222 127.154 1.43338 117.042C0.623207 115.001 0.454051 112.664 0 110.461V107.569C0.878425 99.6833 4.35058 93.7229 10.4165 89.6876C15.1825 86.5179 20.5302 85.512 26.4596 86.6701C26.786 86.7358 27.0145 86.6164 27.1451 86.3119C35.1103 67.6935 48.7377 53.8595 68.0275 44.8099C70.2176 43.7802 72.568 44.2279 73.6185 46.5022C74.7462 48.9437 74.2061 50.7494 71.9982 51.9194C70.0752 52.9342 68.0987 54.0087 66.0688 55.1429C49.9129 64.1686 38.8792 77.0773 32.9676 93.8691C32.1041 96.3405 29.2373 96.5822 27.065 95.6779C23.1892 94.0542 19.3046 94.3377 15.411 96.5285C7.79899 100.817 5.80473 111.186 11.1198 118.063C14.9303 122.994 19.91 124.68 26.0589 123.122C28.5251 122.495 30.8042 123.489 31.4007 126.131C37.3924 152.832 59.3827 172.038 85.1122 178.449C100.366 182.252 115.501 181.813 130.517 177.133C154.484 169.647 173.955 151.068 179.662 126.068C180.187 123.767 182.368 122.397 184.665 123.05C199.391 127.223 209.175 108.975 198.34 98.4894C194.414 94.6929 188.484 93.6363 183.41 95.848C180.73 97.012 178.504 95.4003 177.623 92.8932C171.15 74.3851 156.995 60.4795 139.313 52.206C134.292 49.86 137.426 42.2491 142.608 44.6577C162.034 53.6834 175.759 67.5383 183.784 86.2224C183.926 86.5567 184.172 86.694 184.523 86.6343C191.23 85.512 197.061 86.876 202.017 90.7263C207.471 94.9645 210.466 100.844 211 108.366Z" fill="white"/>
<path d="M77.687 107.22C83.7693 107.22 88.7 102.261 88.7 96.1435C88.7 90.0264 83.7693 85.0674 77.687 85.0674C71.6047 85.0674 66.6741 90.0264 66.6741 96.1435C66.6741 102.261 71.6047 107.22 77.687 107.22Z" fill="white"/>
<path d="M137.595 107.228C143.677 107.228 148.608 102.27 148.608 96.1523C148.608 90.0351 143.677 85.0762 137.595 85.0762C131.513 85.0762 126.582 90.0351 126.582 96.1523C126.582 102.27 131.513 107.228 137.595 107.228Z" fill="white"/>
<path d="M100.069 146.6C107.417 148.283 114.993 147.122 122.798 143.117C127.879 140.508 132.986 136.867 138.12 132.193C139.746 130.713 141.432 130.707 143.177 132.175C143.212 132.211 143.245 132.247 143.275 132.282C144.848 134.014 144.874 135.643 143.355 137.171C138.173 142.371 132.158 146.672 125.309 150.074C119.688 152.868 114.02 154.384 108.304 154.623C100.725 154.933 93.5933 153.127 86.9102 149.206C81.4438 145.988 76.5946 142.051 72.3628 137.395C70.7068 135.575 70.7513 133.814 72.4963 132.112C72.5319 132.077 72.5675 132.044 72.6032 132.014C74.5381 130.677 76.3157 130.874 77.936 132.605C80.8503 135.715 84.0375 138.473 87.4978 140.878C91.5575 143.702 95.7479 145.609 100.069 146.6Z" fill="white"/>
</svg>
