<svg width="100" height="84" viewBox="0 0 100 84" fill="none" xmlns="http://www.w3.org/2000/svg">
<path d="M71.1589 60.4874C73.0887 61.8452 75.6714 61.563 77.3023 59.8506L85.2866 51.467C87.3449 49.3058 88.4844 46.382 88.4844 43.3453V36.75V23.625V17.0625C88.4844 13.9425 90.879 11.5 93.7344 11.5H93.75C96.6054 11.5 99 13.9425 99 17.0625V26.25V36.75V53.4023C99 57.3365 97.5157 61.0906 94.8852 63.8525L79.2759 80.2424C77.5859 82.0168 75.2991 83 72.9219 83H62.5C58.9571 83 56 79.9669 56 76.125V63.1805C56 58.5576 57.7497 54.1307 60.8491 50.8764L64.8023 46.7256L67.1773 44.2318L72.1773 38.9818C73.7363 37.3449 76.2481 37.3449 77.8071 38.9818C79.3924 40.6464 79.3924 43.37 77.8071 45.0346L72.8071 50.2846L70.4321 52.7783C68.3008 55.0162 68.6333 58.7176 71.1589 60.4874ZM71.1589 60.4874L71.7344 59.6695L71.1609 60.4888C71.1603 60.4883 71.1596 60.4878 71.1589 60.4874ZM55.9844 26.9555V27.0149L55.9914 27.0738L57.7253 41.6225C57.7254 41.623 57.7255 41.6235 57.7255 41.624C57.9172 43.2908 56.7994 44.7141 55.3337 44.9138C53.8932 45.1101 52.479 44.022 52.2739 42.3716C52.2739 42.3709 52.2738 42.3702 52.2737 42.3695L51.5867 36.6311L51.4812 35.75H50.5938H49.4062H48.5188L48.4133 36.6311L47.7258 42.3733L47.7253 42.3775C47.5345 44.0306 46.1303 45.1118 44.6653 44.9137C43.1814 44.713 42.0703 43.2886 42.2738 41.6296L42.2742 41.626L44.0086 27.0573L44.3205 24.4372L42.3504 26.1924L39.2567 28.9487L39.2554 28.9498C38.1117 29.9723 36.3963 29.8274 35.4209 28.6105C34.4171 27.3581 34.5732 25.4713 35.7403 24.44L35.7422 24.4383L40.1016 20.5664L40.1019 20.5662C42.8766 18.0998 46.3917 16.75 50 16.75C53.608 16.75 57.1236 18.0995 59.899 20.5505C59.8995 20.551 59.9 20.5514 59.9005 20.5518L64.2554 24.4197C64.2557 24.42 64.2561 24.4204 64.2564 24.4207C65.4354 25.4758 65.5903 27.3471 64.5827 28.5897C63.5891 29.8149 61.8857 29.9536 60.7446 28.9334L60.7411 28.9303L57.6474 26.1904L55.9844 24.7177V26.9391V26.9555ZM50 1C51.3762 1 52.7065 1.57358 53.6953 2.61177C54.6856 3.65161 55.25 5.07192 55.25 6.5625C55.25 8.05308 54.6856 9.47339 53.6953 10.5132C52.7065 11.5514 51.3762 12.125 50 12.125C48.6238 12.125 47.2935 11.5514 46.3047 10.5132C45.3144 9.47339 44.75 8.05308 44.75 6.5625C44.75 5.07192 45.3144 3.65161 46.3047 2.61177C47.2935 1.57358 48.6238 1 50 1ZM6.25 11.5C9.10542 11.5 11.5 13.9425 11.5 17.0625V23.625V36.75V43.3453C11.5 46.382 12.6395 49.3058 14.6977 51.467L22.6821 59.8506C24.3127 61.5627 26.8948 61.8451 28.8245 60.4881C31.3482 58.7205 31.6868 55.0015 29.551 52.7769C29.5503 52.7763 29.5497 52.7757 29.5491 52.775L27.1773 50.2846L22.1773 45.0346C20.592 43.37 20.592 40.6464 22.1773 38.9818C23.7363 37.3449 26.2481 37.3449 27.8071 38.9818L32.8071 44.2318L35.1821 46.7256L39.1352 50.8764C42.2346 54.1307 43.9844 58.5576 43.9844 63.1805V76.125C43.9844 79.9669 41.0273 83 37.4844 83H27.0781C24.7009 83 22.4141 82.0168 20.7241 80.2424L5.11476 63.8525C2.48431 61.0906 1 57.3365 1 53.4023V36.75V26.25V17.0625C1 13.9425 3.39458 11.5 6.25 11.5Z" stroke="white" stroke-width="2"/>
</svg>
