<svg width="212" height="191" viewBox="0 0 212 191" fill="none" xmlns="http://www.w3.org/2000/svg">
<path d="M45.5711 15.6193H120.338C120.401 15.6193 120.461 15.6433 120.505 15.6861C120.549 15.729 120.574 15.787 120.574 15.8476V56.0608C120.574 56.5267 120.698 56.5586 120.946 56.1567C124.695 50.0673 128.585 43.7738 132.617 37.2764C133.479 35.888 134.331 34.8421 135.447 33.778C135.51 33.7187 135.56 33.6485 135.594 33.5716C135.628 33.4948 135.645 33.4127 135.645 33.3304C135.639 26.6412 135.643 18.4904 135.659 8.87823C135.669 4.36138 132.617 0.995438 127.836 1C100.265 1.00305 70.1466 1.00761 37.4798 1.0137C33.2646 1.0137 30.1467 4.55777 30.1467 8.48089C30.153 29.6082 30.1514 51.2532 30.142 73.4157C30.1414 73.4376 30.1467 73.4592 30.1572 73.4785C30.1676 73.4979 30.1831 73.5143 30.202 73.5262C30.2209 73.5381 30.2426 73.5451 30.2651 73.5466C30.2876 73.548 30.31 73.5439 30.3304 73.5345C34.9303 71.321 39.8033 69.6312 44.9494 68.465C45.1284 68.4254 45.2179 68.3174 45.2179 68.1408V15.9618C45.2179 15.7334 45.3356 15.6193 45.5711 15.6193Z" stroke="white" stroke-width="2"/>
<path d="M190.071 132.537H128.364C128.191 132.537 128.105 132.619 128.105 132.783C128.08 137.597 127.532 142.33 126.461 146.982C126.457 147.001 126.457 147.02 126.462 147.038C126.466 147.057 126.475 147.074 126.488 147.089C126.501 147.104 126.517 147.116 126.535 147.124C126.553 147.133 126.573 147.137 126.593 147.138C152.465 147.132 177.946 147.141 203.037 147.165C204.33 147.168 205.44 146.984 206.367 146.612C209.532 145.352 211.467 141.899 210.902 138.666C210.739 137.746 210.186 136.509 209.244 134.953C190.543 104.143 171.538 72.7931 152.228 40.9026C149.934 37.1074 145.013 36.1437 141.33 38.5369C140.466 39.0971 139.424 40.3713 138.202 42.3595C128.868 57.5405 119.519 72.6713 110.156 87.7518C110.099 87.8462 110.109 87.933 110.184 88.0121C113.858 91.8789 116.988 96.0746 119.575 100.599C119.587 100.618 119.603 100.634 119.623 100.645C119.642 100.657 119.664 100.663 119.687 100.663C119.71 100.664 119.732 100.659 119.752 100.648C119.772 100.638 119.789 100.622 119.802 100.604L145.47 59.107C145.485 59.0819 145.508 59.0611 145.534 59.0466C145.561 59.0321 145.59 59.0245 145.62 59.0245C145.65 59.0245 145.68 59.0321 145.705 59.0466C145.731 59.0611 145.752 59.0819 145.766 59.107L190.17 132.372C190.18 132.389 190.185 132.408 190.185 132.427C190.185 132.447 190.18 132.466 190.17 132.482C190.16 132.499 190.145 132.513 190.128 132.522C190.11 132.532 190.091 132.537 190.071 132.537Z" stroke="white" stroke-width="2"/>
<path d="M105.503 132.536C105.503 120.908 100.74 109.756 92.2605 101.534C83.7813 93.3116 72.2811 88.6924 60.2897 88.6924C48.2983 88.6924 36.7981 93.3116 28.3189 101.534C19.8397 109.756 15.0762 120.908 15.0762 132.536C15.0762 144.165 19.8397 155.316 28.3189 163.539C36.7981 171.761 48.2983 176.38 60.2897 176.38C72.2811 176.38 83.7813 171.761 92.2605 163.539C100.74 155.316 105.503 144.165 105.503 132.536Z" stroke="white" stroke-width="2"/>
<path d="M45.2179 15.9618V68.1408C45.2179 68.3174 45.1284 68.4254 44.9494 68.465C39.8033 69.6312 34.9303 71.321 30.3304 73.5345C30.31 73.5439 30.2876 73.548 30.2651 73.5466C30.2426 73.5451 30.2209 73.5381 30.202 73.5262C30.1831 73.5143 30.1676 73.4979 30.1572 73.4785C30.1467 73.4592 30.1414 73.4376 30.142 73.4157C30.1514 51.2532 30.153 29.6082 30.1467 8.48089C30.1467 4.55777 33.2646 1.0137 37.4798 1.0137C70.1466 1.00761 100.265 1.00305 127.836 1C132.617 0.995438 135.669 4.36138 135.659 8.87823C135.643 18.4904 135.639 26.6412 135.645 33.3304C135.645 33.4127 135.628 33.4948 135.594 33.5716C135.56 33.6485 135.51 33.7187 135.447 33.778C134.331 34.8421 133.479 35.888 132.617 37.2764C128.585 43.7738 124.695 50.0673 120.946 56.1567C120.698 56.5586 120.574 56.5267 120.574 56.0608V15.8476C120.574 15.787 120.549 15.729 120.505 15.6861C120.461 15.6433 120.401 15.6193 120.338 15.6193H45.5711C45.3356 15.6193 45.2179 15.7334 45.2179 15.9618Z" fill="white"/>
<path d="M190.071 132.537C190.091 132.537 190.11 132.532 190.128 132.522C190.145 132.513 190.16 132.499 190.17 132.482C190.18 132.466 190.185 132.447 190.185 132.427C190.185 132.408 190.18 132.389 190.17 132.372L145.766 59.107C145.752 59.0819 145.731 59.0611 145.705 59.0466C145.68 59.0321 145.65 59.0245 145.62 59.0245C145.59 59.0245 145.561 59.0321 145.534 59.0466C145.508 59.0611 145.485 59.0819 145.47 59.107L119.802 100.604C119.789 100.622 119.772 100.638 119.752 100.648C119.732 100.659 119.71 100.664 119.687 100.663C119.664 100.663 119.642 100.657 119.623 100.645C119.603 100.634 119.587 100.618 119.575 100.599C116.988 96.0746 113.858 91.8789 110.184 88.0121C110.109 87.933 110.099 87.8462 110.156 87.7518C119.519 72.6713 128.868 57.5405 138.202 42.3595C139.424 40.3713 140.466 39.0971 141.33 38.5369C145.013 36.1437 149.934 37.1074 152.228 40.9026C171.538 72.7931 190.543 104.143 209.244 134.953C210.186 136.509 210.739 137.746 210.902 138.666C211.467 141.899 209.532 145.352 206.367 146.612C205.44 146.984 204.33 147.168 203.037 147.165C177.946 147.141 152.465 147.132 126.593 147.138C126.573 147.137 126.553 147.133 126.535 147.124C126.517 147.116 126.501 147.104 126.488 147.089C126.475 147.074 126.466 147.057 126.462 147.038C126.457 147.02 126.457 147.001 126.461 146.982C127.532 142.33 128.08 137.597 128.105 132.783C128.105 132.619 128.191 132.537 128.364 132.537H190.071Z" fill="white"/>
<path d="M120.579 132.537C120.579 148.042 114.227 162.912 102.921 173.876C91.614 184.84 76.2792 191 60.2894 191C44.2997 191 28.9648 184.84 17.6584 173.876C6.35191 162.912 0 148.042 0 132.537C0 117.031 6.35191 102.161 17.6584 91.1967C28.9648 80.2327 44.2997 74.0732 60.2894 74.0732C76.2792 74.0732 91.614 80.2327 102.921 91.1967C114.227 102.161 120.579 117.031 120.579 132.537ZM105.503 132.537C105.503 120.908 100.739 109.756 92.2602 101.534C83.7811 93.3118 72.2808 88.6925 60.2894 88.6925C48.2981 88.6925 36.7978 93.3118 28.3186 101.534C19.8395 109.756 15.0759 120.908 15.0759 132.537C15.0759 144.165 19.8395 155.317 28.3186 163.539C36.7978 171.761 48.2981 176.381 60.2894 176.381C72.2808 176.381 83.7811 171.761 92.2602 163.539C100.739 155.317 105.503 144.165 105.503 132.537Z" fill="white"/>
</svg>
