<svg width="915" height="1024" viewBox="0 0 915 1024" fill="none" xmlns="http://www.w3.org/2000/svg">
<path d="M188.128 -42.6939C186.113 -41.8013 183.987 -41.9555 181.751 -43.1564C181.581 -43.247 181.393 -43.29 181.205 -43.2815C181.016 -43.273 180.832 -43.2133 180.67 -43.1077C180.302 -42.8481 180.111 -42.5559 180.096 -42.2314C180.052 -41.5011 179.721 -41.0304 179.103 -40.8194C175.763 -39.6347 173.167 -40.6085 171.313 -43.7407C170.901 -44.4385 171.063 -44.7063 171.799 -44.544C172.387 -44.4304 172.858 -44.0896 173.211 -43.5216C173.388 -43.2294 173.586 -43.2051 173.807 -43.4485L174.358 -44.0571C174.873 -44.6251 174.793 -45.0552 174.116 -45.3473C172.233 -46.1263 171.012 -45.9234 170.453 -44.7387C170.144 -44.0896 169.776 -44.049 169.349 -44.617C169.129 -44.9254 169.033 -45.2743 169.062 -45.6638C169.077 -45.8423 169.004 -45.8991 168.842 -45.8342L167.981 -45.4934C167.658 -45.3635 167.474 -45.112 167.429 -44.7387C167.268 -43.2457 166.679 -42.4748 165.664 -42.4261C165.545 -42.4169 165.43 -42.3766 165.328 -42.3086C165.226 -42.2406 165.141 -42.1469 165.078 -42.0351C165.016 -41.9233 164.978 -41.7967 164.969 -41.6657C164.959 -41.5348 164.978 -41.4032 165.024 -41.282C165.48 -40.1622 165.414 -39.2858 164.826 -38.6529C164.37 -38.1498 164.149 -37.5412 164.164 -36.8271C164.34 -31.2768 164.281 -25.7589 163.987 -20.2735C163.796 -16.4435 164.024 -13.5872 164.671 -11.7047C165.421 -9.5462 165.598 -7.60683 165.201 -5.88656C165.054 -5.2374 165.039 -4.58013 165.157 -3.91475C165.524 -1.78875 165.098 0.0613556 163.877 1.63557C163.45 2.18736 163.34 2.81216 163.546 3.51002C164.134 5.50618 164.23 7.55103 163.833 9.64457C163.435 11.7868 162.303 12.9228 160.434 13.0526C160.227 13.0684 160.029 13.1538 159.867 13.2975C159.706 13.4411 159.588 13.6361 159.529 13.856C158.139 19.5524 157.477 22.6927 154.609 27.5614C151.585 32.6491 153.086 50.6633 153.042 57.3334C153.042 57.5282 152.946 57.6255 152.755 57.6255C152.534 57.6255 152.314 57.6255 152.093 57.6255C152.034 57.6255 151.997 57.658 151.983 57.7229C151.6 58.8589 151.335 60.0355 151.188 61.2527C151.176 61.323 151.15 61.3896 151.112 61.4473C151.075 61.5051 151.026 61.5523 150.97 61.5853C150.915 61.6184 150.854 61.6363 150.792 61.6377C150.73 61.6391 150.669 61.624 150.614 61.5935C150.423 61.4799 150.232 61.3744 150.041 61.277C149.967 61.2284 149.71 61.3501 149.268 61.6422C147.635 62.7133 146.885 64.3849 147.017 66.657C147.047 67.1763 147.29 67.4765 147.746 67.5577L152.733 68.5314C152.795 68.5451 152.852 68.5795 152.896 68.63C152.939 68.6805 152.968 68.7447 152.978 68.8138C152.987 68.8829 152.977 68.9536 152.949 69.0163C152.921 69.079 152.877 69.1307 152.821 69.1643C152.615 69.2779 152.409 69.3996 152.203 69.5295C151.821 69.7567 151.806 70.0082 152.159 70.2841L153.924 71.6474C133.652 72.0044 120.589 72.7672 114.733 73.9356C91.3424 78.6096 72.3574 90.6353 57.7785 110.013C39.9924 133.658 26.8184 161.045 18.2564 192.172C14.2402 206.778 9.84891 221.214 7.3774 236.209C3.1626 261.818 -1.4053 287.623 -3.19272 313.159C-4.88454 337.486 -5.94376 361.846 -6.37038 386.238C-6.67932 403.205 -5.48766 421.877 -5.15666 439.818C-4.60498 467.862 -1.93489 494.226 -0.0812683 521.539C-2.14085 519.007 -2.81023 515.916 -2.08937 512.264C-2.05995 512.102 -2.10408 511.988 -2.22177 511.923C-2.41302 511.826 -2.59691 511.728 -2.77345 511.631C-2.87556 511.574 -2.96138 511.487 -3.02133 511.38C-3.0813 511.272 -3.11305 511.149 -3.11305 511.023C-3.11305 510.896 -3.0813 510.773 -3.02133 510.665C-2.96138 510.558 -2.87556 510.471 -2.77345 510.414C-2.37624 510.187 -2.41299 509.976 -2.88376 509.781C-3.19269 509.651 -3.39134 509.765 -3.47961 510.122C-3.58258 510.544 -3.76648 510.933 -4.03128 511.29C-4.47263 511.842 -4.69327 511.753 -4.69327 511.023V510.219C-4.69614 510.153 -4.71916 510.088 -4.75832 510.036C-4.79749 509.983 -4.85033 509.947 -4.90782 509.932C-4.96532 509.918 -5.02383 509.927 -5.07329 509.957C-5.12273 509.987 -5.16002 510.037 -5.17874 510.097L-8.62119 518.934C-8.90071 519.632 -9.06253 520.362 -9.10667 521.125C-9.19493 522.862 -10.0408 523.949 -11.6444 524.387C-11.968 524.484 -12.1814 524.712 -12.2843 525.069C-12.3432 525.296 -12.3432 525.523 -12.2843 525.75C-12.2696 525.815 -11.8651 525.872 -11.0707 525.921C-10.8353 525.937 -10.6146 525.945 -10.4086 525.945C-10.2279 525.934 -10.0494 525.993 -9.90422 526.113C-9.75906 526.232 -9.65656 526.404 -9.6145 526.598C-9.57246 526.792 -9.59355 526.996 -9.67416 527.175C-9.75479 527.354 -9.88976 527.496 -10.0555 527.576C-12.9831 529.085 -15.1677 531.479 -16.6094 534.757C-16.9184 535.455 -17.1906 536.169 -17.426 536.9C-17.8085 538.052 -18.2718 539.164 -18.8161 540.235C-18.8673 540.337 -18.943 540.422 -19.0352 540.481C-19.1275 540.539 -19.233 540.568 -19.3409 540.566C-19.4489 540.563 -19.5553 540.529 -19.6492 540.466C-19.7432 540.404 -19.8213 540.316 -19.8754 540.21C-20.3314 539.269 -20.4123 539.066 -20.1181 539.602C-20.427 540.592 -20.964 541.095 -21.729 541.111C-21.8761 541.127 -21.9791 541.062 -22.038 540.916C-22.141 540.705 -22.2292 540.494 -22.3028 540.283C-22.4205 539.91 -22.5455 539.91 -22.6779 540.283L-24.355 544.982C-24.5904 545.647 -24.9581 546.207 -25.4583 546.661C-26.1792 547.311 -26.5911 547.878 -26.6941 548.365C-26.8412 549.063 -27.2384 549.485 -27.8857 549.631L-43.9946 553.185C-44.8037 553.364 -45.5614 553.68 -46.2675 554.135L-50.7913 557.032C-51.2767 557.34 -51.6666 557.746 -51.9608 558.249C-52.6964 559.482 -53.5644 560.521 -54.5647 561.365C-55.1238 561.852 -55.4989 562.477 -55.6901 563.239C-56.7935 567.913 -62.1999 571.735 -65.0686 575.533C-65.5541 576.166 -65.8336 576.896 -65.9072 577.724C-66.1131 579.785 -67.0473 581.359 -68.7097 582.446C-69.4453 582.933 -69.813 583.647 -69.813 584.589C-69.7983 586.163 -70.1073 587.656 -70.7399 589.068C-71.0488 589.749 -71.1444 590.463 -71.0267 591.21C-70.4971 594.448 -68.9524 598.002 -69.6586 601.093C-70.556 605.037 -72.0712 608.713 -74.2044 612.121C-74.7193 612.932 -76.1683 613.63 -78.5516 614.215C-78.8743 614.299 -79.1631 614.5 -79.3742 614.785C-79.5853 615.071 -79.7071 615.426 -79.7211 615.797C-79.7653 617.55 -80.5817 618.596 -82.1706 618.937C-82.507 619.011 -82.8171 619.191 -83.0636 619.454C-83.3101 619.717 -83.4827 620.053 -83.5608 620.422C-83.8109 621.591 -84.2228 622.694 -84.7965 623.733C-85.0011 624.109 -85.2838 624.427 -85.6214 624.66C-85.959 624.893 -86.3418 625.034 -86.7384 625.072C-91.2622 625.559 -95.6315 630.111 -99.3608 632.375C-99.9492 632.732 -100.207 633.284 -100.133 634.03C-100.06 634.858 -100.346 635.336 -100.994 635.466C-101.773 635.645 -102.237 636.156 -102.384 637C-102.502 637.682 -102.288 638.201 -101.744 638.558C-101.608 638.645 -101.497 638.771 -101.422 638.923C-101.346 639.075 -101.31 639.247 -101.317 639.42C-101.324 639.593 -101.373 639.76 -101.46 639.905C-101.547 640.049 -101.668 640.164 -101.81 640.238C-102.075 640.384 -102.362 640.416 -102.671 640.335C-102.98 640.254 -103.164 640.043 -103.223 639.702C-103.296 639.377 -103.428 639.191 -103.62 639.142C-103.973 639.045 -104.083 639.183 -103.951 639.556C-103.245 641.439 -103.649 643.102 -105.164 644.546C-105.856 645.196 -106.555 645.204 -107.261 644.571L-109.688 642.429C-110.188 641.99 -110.762 641.796 -111.409 641.844C-111.924 641.877 -112.373 641.682 -112.755 641.26C-113.211 640.757 -113.734 640.651 -114.322 640.944C-115.058 641.333 -115.823 641.43 -116.617 641.236C-117.412 641.057 -117.809 641.414 -117.809 642.307V643.743C-117.809 645.09 -118.221 645.261 -119.045 644.254L-120.942 641.942C-127.96 610.149 -135.815 579.549 -140.692 546.004C-142.825 531.268 -144.819 518.545 -146.672 507.833C-155.212 458.708 -157.706 422.704 -161.06 379.47C-167.018 302.448 -166.731 223.185 -156.647 146.577C-155.087 134.827 -152.785 123.134 -149.74 111.498C-140.383 75.7614 -132.108 39.3436 -111.564 8.86558C-101.281 -6.34909 -91.218 -22.4401 -76.389 -32.7374C-47.4518 -52.8126 -15.1898 -63.1505 20.3969 -63.751C44.5824 -64.1648 64.3986 -64.3839 87.9882 -61.7061C127.51 -57.2269 154.807 -50.9463 188.128 -42.6939Z" fill="#F4763B"/>
<path d="M188.07 -42.3003C241.935 -30.3616 287.851 -15.1404 341.562 5.25991C383.492 21.1944 424.981 38.4013 466.03 56.8808C500.847 72.564 535.421 91.4567 569.775 109.45C564.813 108.51 560.093 106.71 555.615 104.052C555.454 103.955 554.565 103.185 552.951 101.742C551.673 100.607 550.249 100.461 548.678 101.304C548.523 101.39 548.349 101.424 548.177 101.403C548.004 101.383 547.841 101.308 547.706 101.187C547.572 101.067 547.471 100.906 547.417 100.724C547.363 100.542 547.357 100.347 547.401 100.162C547.489 99.7887 547.673 99.578 547.952 99.5293C548.069 99.5131 548.084 99.4564 547.996 99.3591C547.041 98.419 546.021 98.4352 544.935 99.4078C544.538 99.7644 544.311 100.226 544.252 100.794C544.222 101.183 544.032 101.475 543.679 101.669C543.298 101.88 542.96 101.807 542.666 101.45C542.505 101.24 542.351 101.029 542.204 100.818C541.851 100.267 541.697 100.332 541.741 101.013C541.756 101.321 541.829 101.62 541.962 101.912C542.49 103.16 543.217 103.493 544.142 102.909C544.553 102.666 544.736 102.796 544.692 103.298C544.619 104.708 544.986 105.487 545.793 105.632C546.249 105.73 546.66 105.932 547.027 106.24L553.963 112.246C554.727 112.895 554.778 113.608 554.118 114.386L551.915 116.963C551.46 117.482 551.225 118.098 551.211 118.811C551.196 119.735 550.858 120.513 550.198 121.145C550.051 121.275 550.066 121.356 550.242 121.389C550.477 121.437 550.66 121.567 550.792 121.778C552.598 124.76 553.89 128.237 554.668 132.209C554.83 133.019 554.734 133.789 554.382 134.519C553.662 135.978 553.303 137.493 553.303 139.066C553.288 139.941 553.031 140.711 552.532 141.376C551.827 142.3 551.46 143.394 551.431 144.658C551.424 144.935 551.367 145.207 551.265 145.457C551.163 145.708 551.017 145.932 550.836 146.117L548.326 148.646C547.856 149.116 547.474 149.659 547.181 150.275C546.315 152.09 544.979 153.355 543.173 154.068C542.483 154.344 542.042 154.87 541.851 155.648C541.088 158.745 539.407 160.738 536.808 161.63C536.236 161.824 535.803 162.214 535.509 162.797L534.937 164.037C534.614 164.686 534.188 165.237 533.659 165.691C529.85 168.9 527.163 173.958 524.454 177.119C522.252 179.647 520.108 182.241 518.024 184.899C515.491 188.133 513.333 193.92 509.105 197.349C508.591 197.77 508.275 198.329 508.158 199.027C507.938 200.356 507.094 201.223 505.625 201.628C503.511 202.196 502.329 201.409 502.08 199.27C502.1 199.258 502.039 199.207 501.901 199.119C501.763 199.031 501.551 198.908 501.277 198.757C501.003 198.605 500.672 198.429 500.303 198.237C499.935 198.046 499.536 197.843 499.129 197.641C498.116 197.138 497.206 197.26 496.398 198.005C495.62 198.735 495.738 199.108 496.751 199.124C497.426 199.124 497.918 199.464 498.226 200.145C498.496 200.698 498.711 201.236 498.835 201.67C498.959 202.104 498.985 202.407 498.909 202.528C498.762 202.755 498.644 202.966 498.556 203.16C498.351 203.614 498.05 203.703 497.653 203.428C496.083 202.244 494.446 201.174 492.743 200.218C492.699 198.824 491.003 198.516 487.656 199.294C487.626 199.3 487.599 199.312 487.574 199.33C487.549 199.348 487.528 199.371 487.511 199.398C487.495 199.426 487.483 199.456 487.478 199.488C487.472 199.521 487.473 199.554 487.479 199.586C487.729 200.931 487.773 202.139 487.611 203.209C487.553 203.582 487.626 203.914 487.832 204.206C488.067 204.578 488.096 205.081 487.92 205.713C415.027 160.463 340.88 123.893 261.865 95.104C225.815 81.9739 190.91 74.5335 153.936 71.9074L152.174 70.5458C151.821 70.2702 151.836 70.019 152.218 69.792C152.423 69.6624 152.629 69.5408 152.834 69.4273C152.89 69.3937 152.935 69.3421 152.963 69.2794C152.991 69.2168 153 69.1462 152.991 69.0772C152.981 69.0082 152.953 68.9441 152.909 68.8936C152.865 68.8432 152.808 68.8088 152.746 68.7951L147.769 67.8225C147.314 67.7415 147.072 67.4416 147.043 66.9229C146.911 64.6535 147.659 62.9838 149.289 61.914C149.729 61.6222 149.986 61.5006 150.06 61.5492C150.251 61.6465 150.441 61.7519 150.632 61.8653C150.687 61.8958 150.748 61.9109 150.809 61.9095C150.871 61.9081 150.932 61.8902 150.988 61.8572C151.043 61.8242 151.092 61.777 151.129 61.7193C151.167 61.6617 151.193 61.5951 151.205 61.5249C151.352 60.3092 151.616 59.1339 151.998 57.9992C152.012 57.9344 152.049 57.902 152.108 57.902C152.328 57.902 152.548 57.902 152.768 57.902C152.959 57.902 153.055 57.8047 153.055 57.6102C153.099 50.9479 151.601 32.9548 154.618 27.8729C157.481 23.0099 158.142 19.8733 159.529 14.1835C159.587 13.9639 159.705 13.7692 159.866 13.6257C160.028 13.4822 160.225 13.3968 160.432 13.3811C162.297 13.2515 163.427 12.1168 163.823 9.97703C164.22 7.88594 164.124 5.84347 163.537 3.84964C163.332 3.15261 163.442 2.52852 163.867 1.97738C165.086 0.405008 165.512 -1.44294 165.145 -3.56645C165.027 -4.23106 165.042 -4.88757 165.189 -5.53597C165.585 -7.25423 165.409 -9.19133 164.66 -11.3473C164.014 -13.2276 163.787 -16.0806 163.978 -19.9062C164.271 -25.3851 164.33 -30.8966 164.154 -36.4404C164.139 -37.1536 164.359 -37.7615 164.814 -38.264C165.402 -38.8962 165.468 -39.7715 165.013 -40.89C164.967 -41.0112 164.948 -41.1425 164.957 -41.2733C164.967 -41.4041 165.004 -41.5306 165.066 -41.6423C165.129 -41.7539 165.214 -41.8476 165.316 -41.9155C165.418 -41.9834 165.533 -42.0237 165.651 -42.0328C166.664 -42.0815 167.251 -42.8515 167.413 -44.3428C167.457 -44.7156 167.641 -44.9669 167.964 -45.0965L168.822 -45.437C168.984 -45.5018 169.057 -45.4451 169.043 -45.2667C169.013 -44.8777 169.109 -44.5292 169.329 -44.2212C169.755 -43.6539 170.122 -43.6944 170.43 -44.3428C170.988 -45.5261 172.206 -45.7287 174.086 -44.9507C174.761 -44.6589 174.842 -44.2293 174.328 -43.662L173.777 -43.0541C173.557 -42.8109 173.359 -42.8352 173.183 -43.127C172.83 -43.6944 172.361 -44.0348 171.773 -44.1483C171.039 -44.3104 170.878 -44.0429 171.289 -43.3459C173.139 -40.2173 175.73 -39.2447 179.063 -40.4281C179.679 -40.6388 180.009 -41.1089 180.054 -41.8383C180.068 -42.1625 180.259 -42.4543 180.626 -42.7137C180.788 -42.8192 180.972 -42.8788 181.16 -42.8873C181.348 -42.8957 181.536 -42.8528 181.705 -42.7623C183.937 -41.5628 186.058 -41.4088 188.07 -42.3003Z" fill="#C6C6C6"/>
<path d="M569.932 109.002C592.389 120.89 608.832 129.943 619.26 136.163C695.819 181.935 751.073 218.548 810.096 271.434C830.497 289.687 846.484 309.248 858.058 330.117C879.693 369.044 866.099 427.995 849.201 468.651C833.427 506.579 815.427 541.585 793.44 576.736C753.431 640.729 716.176 691.203 673.082 743.772C638.17 786.369 612.033 817.054 594.673 835.827C564.159 868.884 533.844 902.647 502.273 934.339C480.653 956.003 458.849 977.44 436.862 998.649C416.432 1018.33 395.825 1037.8 375.042 1057.06C361.735 1069.39 348.105 1080.04 334.152 1089H152.899C153.164 1075.88 153.201 1065.93 153.01 1059.16C152.936 1056.71 153.656 1054.93 155.169 1053.82C155.57 1053.54 155.878 1053.13 156.05 1052.65C157.196 1049.41 157.923 1046.59 159.994 1043.84C162.182 1040.9 164.326 1037.89 166.427 1034.82C166.867 1034.19 167.448 1033.9 168.167 1033.95C169.768 1034.04 171.075 1033.3 172.089 1031.71C174.233 1028.36 177.024 1026.03 180.461 1024.71C180.802 1024.58 181.117 1024.38 181.385 1024.11C181.654 1023.84 181.871 1023.52 182.025 1023.15L184.492 1017.11C184.801 1016.33 185.197 1015.61 185.682 1014.95L188.458 1011.07C188.972 1010.34 189.596 1009.74 190.331 1009.27C191.594 1008.46 192.225 1007.18 192.225 1005.45C192.225 1005.35 192.27 1005.3 192.358 1005.3C192.578 1005.27 192.813 1005.25 193.063 1005.25C193.308 1005.26 193.552 1005.2 193.774 1005.08C193.996 1004.96 194.19 1004.79 194.34 1004.57C195.956 1002.2 197.895 1000.18 200.157 998.527C200.477 998.289 200.752 997.981 200.963 997.621C201.175 997.261 201.321 996.857 201.391 996.432C201.831 993.834 201.743 990.781 201.126 987.273C200.803 985.421 201.427 983.862 202.999 982.596C203.059 982.545 203.105 982.478 203.134 982.401C203.162 982.324 203.171 982.24 203.16 982.158C203.148 982.075 203.117 981.998 203.07 981.933C203.022 981.869 202.959 981.82 202.889 981.792L202.184 981.499C201.156 981.093 201.185 980.89 202.272 980.89H209.52C210.181 980.89 210.783 980.687 211.327 980.281C211.547 980.103 211.782 979.957 212.032 979.843C212.443 979.632 212.979 979.559 213.64 979.624C217.958 980.03 222.151 979.632 226.22 978.43C239.13 977.553 252.041 969.149 263.233 962.401C305.415 936.856 346.085 908.623 385.242 877.702C427.866 844.053 458.387 818.727 476.805 801.724C497.735 782.431 518.562 763.016 539.286 743.479C548.289 734.986 557.241 726.419 566.142 717.78C617.211 668.134 665.966 612.862 705.226 551.28C721.618 525.572 732.986 499.385 739.331 472.719C747.438 438.567 734.594 413.33 714.898 389.019C704.22 375.832 692.881 363.368 680.882 351.626C621.375 293.406 550.5 245.637 488.041 205.443C488.217 204.809 488.188 204.306 487.953 203.932C487.747 203.64 487.674 203.307 487.732 202.934C487.894 201.862 487.85 200.652 487.6 199.304C487.594 199.272 487.593 199.239 487.599 199.207C487.604 199.174 487.616 199.144 487.632 199.116C487.648 199.089 487.67 199.066 487.695 199.048C487.719 199.03 487.747 199.018 487.776 199.012C491.125 198.232 492.822 198.541 492.866 199.937C494.569 200.896 496.207 201.967 497.779 203.153C498.175 203.429 498.476 203.34 498.682 202.885C498.77 202.69 498.888 202.479 499.035 202.252C499.111 202.13 499.085 201.827 498.961 201.392C498.836 200.957 498.621 200.418 498.352 199.864C498.043 199.182 497.551 198.841 496.875 198.841C495.862 198.825 495.744 198.451 496.523 197.721C497.331 196.974 498.241 196.852 499.255 197.355C499.662 197.558 500.061 197.761 500.43 197.953C500.799 198.145 501.13 198.322 501.404 198.473C501.678 198.625 501.89 198.748 502.028 198.837C502.166 198.925 502.227 198.976 502.207 198.987C502.457 201.131 503.639 201.919 505.754 201.35C507.223 200.944 508.067 200.075 508.288 198.744C508.405 198.045 508.721 197.485 509.235 197.063C513.465 193.628 515.624 187.831 518.158 184.591C520.243 181.927 522.388 179.329 524.591 176.796C527.301 173.629 529.989 168.562 533.8 165.346C534.329 164.892 534.755 164.34 535.078 163.69L535.651 162.448C535.944 161.863 536.378 161.473 536.951 161.278C539.55 160.385 541.232 158.388 541.996 155.286C542.187 154.506 542.627 153.978 543.318 153.702C545.124 152.988 546.461 151.721 547.327 149.902C547.621 149.285 548.003 148.741 548.473 148.27L550.984 145.737C551.166 145.551 551.311 145.327 551.414 145.076C551.516 144.825 551.572 144.553 551.579 144.275C551.609 143.008 551.976 141.912 552.681 140.987C553.18 140.321 553.437 139.549 553.452 138.672C553.452 137.097 553.812 135.579 554.532 134.117C554.884 133.386 554.979 132.615 554.818 131.803C554.039 127.824 552.747 124.341 550.94 121.352C550.808 121.141 550.625 121.011 550.39 120.963C550.213 120.93 550.199 120.849 550.346 120.719C551.007 120.086 551.344 119.306 551.359 118.381C551.374 117.666 551.609 117.049 552.064 116.529L554.267 113.947C554.928 113.168 554.877 112.453 554.113 111.803L547.173 105.787C546.806 105.478 546.395 105.275 545.939 105.178C545.132 105.031 544.764 104.252 544.838 102.839C544.882 102.336 544.698 102.206 544.287 102.449C543.362 103.034 542.635 102.701 542.106 101.45C541.974 101.158 541.9 100.858 541.886 100.549C541.841 99.8671 541.996 99.8021 542.348 100.354C542.495 100.565 542.649 100.777 542.811 100.988C543.105 101.345 543.442 101.418 543.824 101.207C544.177 101.012 544.368 100.72 544.397 100.33C544.456 99.7615 544.684 99.2987 545.08 98.9414C546.167 97.967 547.188 97.9508 548.142 98.8927C548.231 98.9901 548.216 99.047 548.098 99.0632C547.819 99.1119 547.636 99.3231 547.548 99.6966C547.504 99.8822 547.51 100.078 547.564 100.26C547.618 100.442 547.718 100.603 547.853 100.724C547.988 100.845 548.151 100.92 548.324 100.941C548.496 100.962 548.67 100.927 548.825 100.841C550.397 99.997 551.822 100.143 553.1 101.28C554.715 102.725 555.604 103.497 555.765 103.594C560.245 106.258 564.967 108.06 569.932 109.002Z" fill="#C6C6C6"/>
<path d="M-0.533893 521.539C6.79164 580.982 12.9036 619.887 24.245 676.017C25.8042 683.748 28.018 692.608 30.8865 702.596C34.2624 714.314 37.1088 726.349 40.7495 737.75C47.722 759.627 54.3855 784.793 61.005 803.454C73.6114 838.974 90.013 872.301 110.21 903.436C139.048 947.896 173.337 982.734 225.874 978.422C221.799 979.623 217.599 980.021 213.275 979.615C212.613 979.55 212.076 979.623 211.664 979.835C211.414 979.948 211.179 980.094 210.958 980.273C210.414 980.679 209.81 980.882 209.149 980.882H201.889C200.801 980.882 200.771 981.085 201.801 981.491L202.507 981.783C202.578 981.812 202.64 981.861 202.688 981.925C202.736 981.99 202.767 982.067 202.778 982.149C202.79 982.232 202.781 982.316 202.752 982.393C202.724 982.47 202.677 982.537 202.617 982.587C201.043 983.854 200.418 985.413 200.742 987.265C201.36 990.773 201.448 993.826 201.007 996.425C200.937 996.85 200.791 997.254 200.579 997.614C200.367 997.974 200.092 998.282 199.771 998.52C197.506 1000.18 195.564 1002.19 193.946 1004.56C193.795 1004.78 193.601 1004.96 193.378 1005.07C193.156 1005.19 192.912 1005.25 192.666 1005.24C192.416 1005.24 192.181 1005.26 191.96 1005.29C191.872 1005.29 191.828 1005.34 191.828 1005.44C191.828 1007.18 191.195 1008.45 189.93 1009.26C189.195 1009.73 188.569 1010.34 188.055 1011.07L185.274 1014.94C184.789 1015.61 184.392 1016.33 184.083 1017.11L181.612 1023.15C181.458 1023.51 181.24 1023.84 180.971 1024.1C180.702 1024.37 180.387 1024.58 180.045 1024.71C176.603 1026.02 173.808 1028.36 171.66 1031.7C170.645 1033.29 169.336 1034.04 167.733 1033.94C167.012 1033.89 166.431 1034.19 165.99 1034.82C163.886 1037.89 161.738 1040.89 159.547 1043.83C157.473 1046.59 156.745 1049.41 155.597 1052.65C155.425 1053.13 155.116 1053.54 154.714 1053.82C153.199 1054.93 152.479 1056.7 152.552 1059.16C152.743 1065.93 152.707 1075.88 152.442 1089H62.9688C64.1309 1088.42 65.2047 1088.07 66.1902 1087.98C66.4068 1087.96 66.615 1087.88 66.7898 1087.74C66.9646 1087.6 67.0985 1087.4 67.1754 1087.18C67.2524 1086.95 67.2691 1086.71 67.2235 1086.48C67.1778 1086.24 67.0719 1086.03 66.9184 1085.86C60.5417 1078.57 53.856 1071.92 48.406 1064.2C23.8257 1029.33 2.29777 992.267 -16.1779 953.012C-25.0259 934.18 -34.0504 916.347 -41.7952 896.298C-45.5683 886.577 -50.246 877.052 -53.5558 867.575C-64.1028 837.464 -76.3929 809.959 -84.8658 777.436C-91.2646 752.903 -101.128 727.421 -106.82 702.864C-111.528 682.595 -116.382 662.318 -121.383 642.032L-119.486 644.347C-118.662 645.354 -118.25 645.183 -118.25 643.835V642.398C-118.25 641.505 -117.853 641.147 -117.058 641.326C-116.264 641.521 -115.499 641.423 -114.764 641.034C-114.175 640.741 -113.653 640.847 -113.197 641.35C-112.815 641.773 -112.366 641.967 -111.851 641.935C-111.204 641.886 -110.63 642.081 -110.13 642.52L-107.703 644.663C-106.997 645.297 -106.298 645.289 -105.607 644.639C-104.092 643.194 -103.687 641.529 -104.393 639.645C-104.526 639.271 -104.415 639.133 -104.062 639.231C-103.871 639.28 -103.739 639.466 -103.665 639.791C-103.606 640.132 -103.422 640.343 -103.113 640.425C-102.805 640.506 -102.518 640.473 -102.253 640.327C-102.111 640.253 -101.99 640.138 -101.903 639.994C-101.816 639.85 -101.766 639.682 -101.76 639.509C-101.753 639.336 -101.789 639.164 -101.864 639.012C-101.94 638.86 -102.051 638.733 -102.187 638.646C-102.731 638.289 -102.944 637.769 -102.827 637.087C-102.68 636.242 -102.216 635.731 -101.437 635.552C-100.789 635.422 -100.502 634.943 -100.576 634.115C-100.65 633.368 -100.392 632.816 -99.8037 632.458C-96.0748 630.193 -91.7059 625.637 -87.1826 625.15C-86.786 625.112 -86.4032 624.971 -86.0657 624.738C-85.7281 624.505 -85.4455 624.187 -85.2409 623.81C-84.6672 622.77 -84.2554 621.666 -84.0053 620.497C-83.9272 620.128 -83.7546 619.791 -83.5081 619.528C-83.2616 619.264 -82.9516 619.085 -82.6152 619.01C-81.0265 618.669 -80.2101 617.622 -80.166 615.868C-80.152 615.497 -80.0302 615.141 -79.8191 614.855C-79.6081 614.57 -79.3192 614.369 -78.9966 614.284C-76.6135 613.7 -75.1646 613.001 -74.6498 612.189C-72.5168 608.778 -71.0017 605.1 -70.1044 601.153C-69.3983 598.059 -70.9429 594.502 -71.4724 591.262C-71.5901 590.515 -71.4945 589.801 -71.1856 589.118C-70.5531 587.705 -70.2442 586.211 -70.2589 584.636C-70.2589 583.694 -69.8911 582.979 -69.1556 582.492C-67.4934 581.404 -66.5593 579.828 -66.3534 577.766C-66.2798 576.937 -66.0003 576.207 -65.5149 575.573C-62.6465 571.773 -57.2406 567.948 -56.1374 563.27C-55.9461 562.507 -55.571 561.882 -55.0121 561.395C-54.0118 560.55 -53.1439 559.511 -52.4084 558.276C-52.1142 557.773 -51.7244 557.367 -51.2389 557.058L-46.7157 554.159C-46.0096 553.704 -45.252 553.388 -44.443 553.209L-28.3356 549.652C-27.6884 549.506 -27.2912 549.084 -27.1441 548.385C-27.0411 547.898 -26.6293 547.33 -25.9085 546.68C-25.4084 546.225 -25.0406 545.665 -24.8052 544.999L-23.1283 540.297C-22.9959 539.924 -22.8709 539.924 -22.7532 540.297C-22.6797 540.508 -22.5914 540.719 -22.4885 540.931C-22.4296 541.077 -22.3266 541.142 -22.1795 541.125C-21.4146 541.109 -20.8777 540.606 -20.5688 539.615C-20.863 539.079 -20.7821 539.282 -20.3261 540.224C-20.272 540.329 -20.1939 540.418 -20.1 540.48C-20.006 540.543 -19.8996 540.577 -19.7917 540.58C-19.6838 540.582 -19.5782 540.553 -19.486 540.494C-19.3937 540.436 -19.3181 540.351 -19.2669 540.248C-18.7227 539.177 -18.2594 538.064 -17.8769 536.911C-17.6416 536.18 -17.3694 535.465 -17.0605 534.767C-15.6189 531.486 -13.4345 529.091 -10.5072 527.58C-10.3414 527.5 -10.2065 527.358 -10.1259 527.179C-10.0453 527 -10.0242 526.796 -10.0662 526.601C-10.1082 526.407 -10.2107 526.235 -10.3559 526.116C-10.501 525.996 -10.6795 525.937 -10.8602 525.948C-11.0662 525.948 -11.2869 525.94 -11.5222 525.924C-12.3166 525.875 -12.7211 525.818 -12.7358 525.753C-12.7946 525.526 -12.7946 525.298 -12.7358 525.071C-12.6328 524.714 -12.4195 524.486 -12.0959 524.389C-10.4925 523.95 -9.64667 522.862 -9.55842 521.124C-9.51429 520.361 -9.35247 519.63 -9.07299 518.932L-5.63087 510.088C-5.61215 510.027 -5.57487 509.978 -5.52542 509.947C-5.47598 509.917 -5.41746 509.909 -5.35998 509.923C-5.30249 509.938 -5.24965 509.974 -5.21049 510.027C-5.17133 510.079 -5.14831 510.144 -5.14544 510.21V511.014C-5.14544 511.745 -4.92482 511.834 -4.48352 511.282C-4.21874 510.925 -4.03487 510.535 -3.9319 510.113C-3.84364 509.755 -3.64501 509.642 -3.33611 509.772C-2.86539 509.967 -2.82864 510.178 -3.22581 510.405C-3.32792 510.462 -3.41372 510.549 -3.47368 510.657C-3.53363 510.764 -3.56539 510.888 -3.56539 511.014C-3.56539 511.14 -3.53363 511.264 -3.47368 511.372C-3.41372 511.479 -3.32792 511.566 -3.22581 511.623C-3.04929 511.721 -2.86542 511.818 -2.67419 511.916C-2.55651 511.98 -2.51238 512.094 -2.5418 512.257C-3.26259 515.911 -2.59328 519.005 -0.533893 521.539Z" fill="#C6C6C6"/>
<path d="M233.907 -42.6939C231.891 -41.8013 229.766 -41.9555 227.53 -43.1564C227.36 -43.247 227.172 -43.29 226.983 -43.2815C226.795 -43.273 226.611 -43.2133 226.448 -43.1077C226.08 -42.8481 225.889 -42.5559 225.874 -42.2314C225.83 -41.5011 225.499 -41.0304 224.882 -40.8194C221.542 -39.6347 218.945 -40.6085 217.092 -43.7407C216.68 -44.4385 216.842 -44.7063 217.577 -44.544C218.166 -44.4304 218.637 -44.0896 218.99 -43.5216C219.166 -43.2294 219.365 -43.2051 219.585 -43.4485L220.137 -44.0571C220.652 -44.6251 220.571 -45.0552 219.894 -45.3473C218.011 -46.1263 216.79 -45.9234 216.231 -44.7387C215.922 -44.0896 215.554 -44.049 215.128 -44.617C214.907 -44.9254 214.812 -45.2743 214.841 -45.6638C214.856 -45.8423 214.782 -45.8991 214.62 -45.8342L213.76 -45.4934C213.436 -45.3635 213.252 -45.112 213.208 -44.7387C213.046 -43.2457 212.458 -42.4748 211.443 -42.4261C211.324 -42.4169 211.209 -42.3766 211.107 -42.3086C211.005 -42.2406 210.919 -42.1469 210.857 -42.0351C210.794 -41.9233 210.757 -41.7967 210.747 -41.6657C210.738 -41.5348 210.757 -41.4032 210.803 -41.282C211.259 -40.1622 211.193 -39.2858 210.604 -38.6529C210.148 -38.1498 209.927 -37.5412 209.942 -36.8271C210.119 -31.2768 210.06 -25.7589 209.766 -20.2735C209.574 -16.4435 209.802 -13.5872 210.45 -11.7047C211.2 -9.5462 211.376 -7.60683 210.979 -5.88656C210.832 -5.2374 210.817 -4.58013 210.935 -3.91475C211.303 -1.78875 210.876 0.0613556 209.655 1.63557C209.229 2.18736 209.118 2.81216 209.324 3.51002C209.913 5.50618 210.008 7.55103 209.611 9.64457C209.214 11.7868 208.081 12.9228 206.213 13.0526C206.006 13.0684 205.808 13.1538 205.646 13.2975C205.484 13.4411 205.366 13.6361 205.308 13.856C203.918 19.5524 203.256 22.6927 200.387 27.5614C197.364 32.6491 198.864 50.6633 198.82 57.3334C198.82 57.5282 198.725 57.6255 198.533 57.6255C198.313 57.6255 198.092 57.6255 197.871 57.6255C197.813 57.6255 197.776 57.658 197.761 57.7229C197.379 58.8589 197.114 60.0355 196.967 61.2527C196.955 61.323 196.929 61.3896 196.891 61.4473C196.853 61.5051 196.805 61.5523 196.749 61.5853C196.693 61.6184 196.632 61.6363 196.57 61.6377C196.509 61.6391 196.448 61.624 196.393 61.5935C196.202 61.4799 196.01 61.3744 195.819 61.277C195.746 61.2284 195.488 61.3501 195.047 61.6422C193.414 62.7133 192.664 64.3849 192.796 66.657C192.825 67.1763 193.068 67.4765 193.524 67.5577L198.511 68.5314C198.574 68.5451 198.63 68.5795 198.674 68.63C198.718 68.6805 198.747 68.7447 198.756 68.8138C198.766 68.8829 198.756 68.9536 198.728 69.0163C198.7 69.079 198.655 69.1307 198.6 69.1643C198.394 69.2779 198.188 69.3996 197.982 69.5295C197.599 69.7567 197.585 70.0082 197.938 70.2841L199.703 71.6474C179.431 72.0044 166.367 72.7672 160.512 73.9356C137.121 78.6096 118.136 90.6353 103.557 110.013C85.771 133.658 72.597 161.045 64.035 192.172C60.0188 206.778 55.6275 221.214 53.156 236.209C48.9412 261.818 44.3733 287.623 42.5858 313.159C40.894 337.486 39.8348 361.846 39.4082 386.238C39.0992 403.205 40.2909 421.877 40.6219 439.818C41.1736 467.862 43.8437 494.226 45.6973 521.539C43.6377 519.007 42.9683 515.916 43.6892 512.264C43.7186 512.102 43.6745 511.988 43.5568 511.923C43.3655 511.826 43.1817 511.728 43.0051 511.631C42.903 511.574 42.8172 511.487 42.7572 511.38C42.6973 511.272 42.6655 511.149 42.6655 511.023C42.6655 510.896 42.6973 510.773 42.7572 510.665C42.8172 510.558 42.903 510.471 43.0051 510.414C43.4023 510.187 43.3656 509.976 42.8948 509.781C42.5859 509.651 42.3872 509.765 42.299 510.122C42.196 510.544 42.0121 510.933 41.7473 511.29C41.3059 511.842 41.0853 511.753 41.0853 511.023V510.219C41.0824 510.153 41.0594 510.088 41.0202 510.036C40.9811 509.983 40.9282 509.947 40.8707 509.932C40.8132 509.918 40.7547 509.927 40.7053 509.957C40.6558 509.987 40.6185 510.037 40.5998 510.097L37.1574 518.934C36.8779 519.632 36.716 520.362 36.6719 521.125C36.5836 522.862 35.7377 523.949 34.1342 524.387C33.8105 524.484 33.5972 524.712 33.4942 525.069C33.4354 525.296 33.4354 525.523 33.4942 525.75C33.509 525.815 33.9135 525.872 34.7079 525.921C34.9433 525.937 35.164 525.945 35.3699 525.945C35.5507 525.934 35.7292 525.993 35.8743 526.113C36.0195 526.232 36.122 526.404 36.1641 526.598C36.2061 526.792 36.185 526.996 36.1044 527.175C36.0238 527.354 35.8888 527.496 35.723 527.576C32.7955 529.085 30.6108 531.479 29.1691 534.757C28.8602 535.455 28.588 536.169 28.3526 536.9C27.9701 538.052 27.5067 539.164 26.9624 540.235C26.9112 540.337 26.8356 540.422 26.7433 540.481C26.6511 540.539 26.5456 540.568 26.4376 540.566C26.3297 540.563 26.2233 540.529 26.1293 540.466C26.0354 540.404 25.9573 540.316 25.9032 540.21C25.4471 539.269 25.3662 539.066 25.6605 539.602C25.3515 540.592 24.8145 541.095 24.0496 541.111C23.9025 541.127 23.7994 541.062 23.7406 540.916C23.6376 540.705 23.5493 540.494 23.4758 540.283C23.3581 539.91 23.2331 539.91 23.1007 540.283L21.4236 544.982C21.1882 545.647 20.8204 546.207 20.3202 546.661C19.5994 547.311 19.1875 547.878 19.0845 548.365C18.9374 549.063 18.5401 549.485 17.8929 549.631L1.78395 553.185C0.974831 553.364 0.217163 553.68 -0.488983 554.135L-5.0127 557.032C-5.49817 557.34 -5.88802 557.746 -6.18224 558.249C-6.91781 559.482 -7.7858 560.521 -8.78616 561.365C-9.3452 561.852 -9.72032 562.477 -9.91158 563.239C-11.0149 567.913 -16.4213 571.735 -19.2901 575.533C-19.7755 576.166 -20.0551 576.896 -20.1286 577.724C-20.3346 579.785 -21.2688 581.359 -22.9311 582.446C-23.6667 582.933 -24.0345 583.647 -24.0345 584.589C-24.0198 586.163 -24.3287 587.656 -24.9613 589.068C-25.2702 589.749 -25.3658 590.463 -25.2481 591.21C-24.7185 594.448 -23.1739 598.002 -23.88 601.093C-24.7774 605.037 -26.2927 608.713 -28.4258 612.121C-28.9407 612.932 -30.3898 613.63 -32.773 614.215C-33.0957 614.299 -33.3846 614.5 -33.5957 614.785C-33.8068 615.071 -33.9286 615.426 -33.9426 615.797C-33.9867 617.55 -34.8032 618.596 -36.392 618.937C-36.7285 619.011 -37.0385 619.191 -37.285 619.454C-37.5316 619.717 -37.7042 620.053 -37.7822 620.422C-38.0323 621.591 -38.4442 622.694 -39.018 623.733C-39.2225 624.109 -39.5052 624.427 -39.8428 624.66C-40.1804 624.893 -40.5633 625.034 -40.9599 625.072C-45.4836 625.559 -49.8529 630.111 -53.5822 632.375C-54.1707 632.732 -54.4281 633.284 -54.3545 634.03C-54.281 634.858 -54.5679 635.336 -55.2152 635.466C-55.9949 635.645 -56.4583 636.156 -56.6054 637C-56.7231 637.682 -56.5098 638.201 -55.9655 638.558C-55.8298 638.645 -55.7183 638.771 -55.643 638.923C-55.5677 639.075 -55.5315 639.247 -55.5383 639.42C-55.5452 639.593 -55.5947 639.76 -55.6817 639.905C-55.7686 640.049 -55.8897 640.164 -56.0317 640.238C-56.2965 640.384 -56.5833 640.416 -56.8923 640.335C-57.2012 640.254 -57.3851 640.043 -57.4439 639.702C-57.5175 639.377 -57.6499 639.191 -57.8411 639.142C-58.1942 639.045 -58.3046 639.183 -58.1722 639.556C-57.466 641.439 -57.8706 643.102 -59.3858 644.546C-60.0773 645.196 -60.7761 645.204 -61.4822 644.571L-63.9096 642.429C-64.4098 641.99 -64.9835 641.796 -65.6308 641.844C-66.1457 641.877 -66.5944 641.682 -66.9769 641.26C-67.4329 640.757 -67.9552 640.651 -68.5437 640.944C-69.2792 641.333 -70.0442 641.43 -70.8386 641.236C-71.633 641.057 -72.0302 641.414 -72.0302 642.307V643.743C-72.0302 645.09 -72.4422 645.261 -73.266 644.254L-75.1638 641.942C-82.1811 610.149 -90.0369 579.549 -94.9137 546.004C-97.0469 531.268 -99.0403 518.545 -100.894 507.833C-109.434 458.708 -111.927 422.704 -115.282 379.47C-121.24 302.448 -120.953 223.185 -110.868 146.577C-109.309 134.827 -107.006 123.134 -103.961 111.498C-94.6048 75.7614 -86.3297 39.3436 -65.7853 8.86558C-55.502 -6.34909 -45.4395 -22.4401 -30.6104 -32.7374C-1.67323 -52.8126 30.5887 -63.1505 66.1755 -63.751C90.3609 -64.1648 110.177 -64.3839 133.767 -61.7061C173.289 -57.2269 200.586 -50.9463 233.907 -42.6939Z" fill="white"/>
<path d="M233.848 -42.3003C287.714 -30.3616 333.629 -15.1404 387.341 5.25991C429.27 21.1944 470.76 38.4013 511.809 56.8808C546.625 72.564 581.2 91.4567 615.554 109.45C610.592 108.51 605.871 106.71 601.394 104.052C601.232 103.955 600.344 103.185 598.729 101.742C597.452 100.607 596.028 100.461 594.457 101.304C594.302 101.39 594.128 101.424 593.955 101.403C593.783 101.383 593.62 101.308 593.485 101.187C593.35 101.066 593.25 100.906 593.196 100.724C593.142 100.542 593.136 100.347 593.18 100.162C593.268 99.7887 593.451 99.578 593.73 99.5293C593.848 99.5131 593.862 99.4564 593.774 99.3591C592.82 98.419 591.799 98.4352 590.713 99.4078C590.317 99.7644 590.089 100.226 590.03 100.794C590.001 101.183 589.81 101.475 589.458 101.669C589.076 101.88 588.739 101.807 588.445 101.45C588.283 101.24 588.129 101.029 587.982 100.818C587.63 100.267 587.476 100.332 587.52 101.013C587.535 101.321 587.608 101.62 587.74 101.912C588.269 103.16 588.995 103.493 589.92 102.909C590.331 102.666 590.515 102.796 590.471 103.298C590.397 104.708 590.764 105.487 591.572 105.632C592.027 105.73 592.438 105.932 592.805 106.24L599.742 112.246C600.505 112.895 600.557 113.608 599.896 114.386L597.694 116.963C597.239 117.482 597.004 118.098 596.989 118.811C596.975 119.735 596.637 120.513 595.976 121.145C595.83 121.275 595.844 121.356 596.02 121.389C596.255 121.437 596.439 121.567 596.571 121.778C598.377 124.76 599.669 128.237 600.447 132.209C600.608 133.019 600.513 133.789 600.16 134.519C599.441 135.978 599.081 137.493 599.081 139.066C599.067 139.941 598.81 140.711 598.311 141.376C597.606 142.3 597.239 143.394 597.21 144.658C597.202 144.935 597.146 145.207 597.044 145.457C596.942 145.708 596.796 145.932 596.615 146.117L594.104 148.646C593.635 149.116 593.253 149.659 592.959 150.275C592.093 152.09 590.757 153.355 588.951 154.068C588.261 154.344 587.821 154.87 587.63 155.648C586.867 158.745 585.186 160.738 582.587 161.63C582.014 161.824 581.581 162.214 581.288 162.797L580.715 164.037C580.392 164.686 579.966 165.237 579.438 165.691C575.628 168.9 572.941 173.958 570.233 177.119C568.031 179.647 565.887 182.241 563.802 184.899C561.27 188.133 559.112 193.92 554.883 197.349C554.37 197.77 554.054 198.329 553.936 199.027C553.716 200.356 552.872 201.223 551.404 201.628C549.29 202.196 548.108 201.409 547.858 199.27C547.878 199.258 547.817 199.207 547.68 199.119C547.542 199.031 547.33 198.908 547.056 198.757C546.781 198.605 546.451 198.429 546.082 198.237C545.713 198.046 545.314 197.843 544.908 197.641C543.895 197.138 542.984 197.26 542.177 198.005C541.399 198.735 541.516 199.108 542.529 199.124C543.204 199.124 543.696 199.464 544.005 200.145C544.274 200.698 544.489 201.236 544.614 201.67C544.738 202.104 544.764 202.407 544.687 202.528C544.54 202.755 544.423 202.966 544.335 203.16C544.129 203.614 543.828 203.703 543.432 203.428C541.861 202.244 540.224 201.174 538.521 200.218C538.477 198.824 536.781 198.516 533.434 199.294C533.405 199.3 533.377 199.312 533.352 199.33C533.327 199.348 533.306 199.371 533.29 199.398C533.273 199.426 533.262 199.456 533.257 199.488C533.251 199.521 533.252 199.554 533.258 199.586C533.508 200.931 533.552 202.139 533.39 203.209C533.331 203.582 533.405 203.914 533.61 204.206C533.845 204.578 533.875 205.081 533.698 205.713C460.806 160.463 386.658 123.893 307.643 95.104C271.594 81.9739 236.689 74.5335 199.714 71.9074L197.952 70.5458C197.6 70.2702 197.615 70.019 197.996 69.792C198.202 69.6624 198.407 69.5408 198.613 69.4273C198.668 69.3937 198.713 69.3421 198.741 69.2794C198.769 69.2168 198.779 69.1462 198.769 69.0772C198.76 69.0082 198.731 68.9441 198.687 68.8936C198.644 68.8432 198.587 68.8088 198.525 68.7951L193.548 67.8225C193.093 67.7415 192.851 67.4416 192.821 66.9229C192.689 64.6535 193.438 62.9838 195.067 61.914C195.508 61.6222 195.765 61.5006 195.838 61.5492C196.029 61.6465 196.22 61.7519 196.411 61.8653C196.466 61.8958 196.526 61.9109 196.588 61.9095C196.65 61.9081 196.711 61.8902 196.766 61.8572C196.822 61.8242 196.87 61.777 196.908 61.7193C196.946 61.6617 196.971 61.5951 196.983 61.5249C197.13 60.3092 197.394 59.1339 197.776 57.9992C197.791 57.9344 197.828 57.902 197.886 57.902C198.106 57.902 198.327 57.902 198.547 57.902C198.738 57.902 198.833 57.8047 198.833 57.6102C198.877 50.9479 197.38 32.9548 200.397 27.8729C203.26 23.0099 203.92 19.8733 205.308 14.1835C205.366 13.9639 205.483 13.7692 205.645 13.6257C205.806 13.4822 206.004 13.3968 206.211 13.3811C208.075 13.2515 209.206 12.1168 209.602 9.97703C209.998 7.88594 209.903 5.84348 209.316 3.84964C209.11 3.15261 209.22 2.52852 209.646 1.97738C210.865 0.405006 211.29 -1.44294 210.923 -3.56645C210.806 -4.23106 210.82 -4.88757 210.967 -5.53597C211.364 -7.25423 211.188 -9.19133 210.439 -11.3473C209.793 -13.2276 209.565 -16.0806 209.756 -19.9062C210.05 -25.3851 210.108 -30.8966 209.932 -36.4404C209.918 -37.1536 210.138 -37.7615 210.593 -38.264C211.18 -38.8962 211.246 -39.7715 210.791 -40.89C210.745 -41.0112 210.726 -41.1425 210.736 -41.2733C210.745 -41.4041 210.783 -41.5306 210.845 -41.6423C210.907 -41.7539 210.993 -41.8476 211.095 -41.9155C211.196 -41.9834 211.311 -42.0237 211.43 -42.0328C212.443 -42.0815 213.03 -42.8515 213.192 -44.3428C213.236 -44.7156 213.419 -44.9669 213.742 -45.0965L214.601 -45.437C214.762 -45.5018 214.836 -45.4451 214.821 -45.2667C214.792 -44.8777 214.887 -44.5292 215.107 -44.2212C215.533 -43.6539 215.9 -43.6944 216.209 -44.3428C216.766 -45.5261 217.985 -45.7287 219.864 -44.9507C220.54 -44.6589 220.62 -44.2293 220.106 -43.662L219.556 -43.0541C219.336 -42.8109 219.137 -42.8352 218.961 -43.127C218.609 -43.6944 218.139 -44.0348 217.552 -44.1483C216.818 -44.3104 216.656 -44.0429 217.067 -43.3459C218.917 -40.2173 221.508 -39.2447 224.841 -40.4281C225.458 -40.6388 225.788 -41.1089 225.832 -41.8383C225.847 -42.1625 226.038 -42.4543 226.405 -42.7137C226.567 -42.8192 226.75 -42.8788 226.939 -42.8873C227.127 -42.8957 227.314 -42.8528 227.484 -42.7623C229.715 -41.5628 231.837 -41.4088 233.848 -42.3003Z" fill="white"/>
<path d="M615.71 109.002C638.167 120.89 654.61 129.943 665.038 136.163C741.597 181.935 796.852 218.548 855.874 271.434C876.275 289.687 892.263 309.248 903.836 330.117C925.471 369.044 911.878 427.995 894.98 468.651C879.205 506.579 861.206 541.585 839.218 576.736C799.209 640.729 761.954 691.203 718.861 743.772C683.949 786.369 657.812 817.054 640.451 835.828C609.938 868.884 579.623 902.647 548.052 934.339C526.432 956.003 504.628 977.44 482.641 998.649C462.21 1018.33 441.603 1037.8 420.82 1057.06C407.514 1069.39 393.883 1080.04 379.93 1089H198.678C198.942 1075.88 198.979 1065.93 198.788 1059.16C198.715 1056.71 199.434 1054.93 200.947 1053.82C201.348 1053.54 201.656 1053.13 201.829 1052.65C202.974 1049.41 203.701 1046.59 205.772 1043.84C207.961 1040.9 210.105 1037.89 212.205 1034.82C212.646 1034.19 213.226 1033.9 213.946 1033.95C215.547 1034.04 216.854 1033.3 217.867 1031.71C220.012 1028.36 222.802 1026.03 226.239 1024.71C226.581 1024.58 226.895 1024.38 227.164 1024.11C227.433 1023.84 227.65 1023.52 227.803 1023.15L230.271 1017.11C230.579 1016.33 230.976 1015.61 231.461 1014.95L234.237 1011.07C234.751 1010.34 235.375 1009.74 236.109 1009.27C237.372 1008.46 238.004 1007.18 238.004 1005.45C238.004 1005.35 238.048 1005.3 238.136 1005.3C238.357 1005.27 238.592 1005.25 238.841 1005.25C239.086 1005.26 239.33 1005.2 239.552 1005.08C239.775 1004.96 239.969 1004.79 240.119 1004.57C241.735 1002.2 243.673 1000.18 245.935 998.527C246.256 998.289 246.53 997.981 246.742 997.621C246.954 997.261 247.099 996.857 247.169 996.432C247.61 993.834 247.522 990.781 246.905 987.273C246.582 985.421 247.206 983.862 248.777 982.596C248.837 982.545 248.884 982.478 248.912 982.401C248.941 982.324 248.95 982.24 248.938 982.158C248.927 982.075 248.896 981.998 248.848 981.933C248.8 981.869 248.738 981.82 248.667 981.792L247.962 981.5C246.934 981.094 246.963 980.891 248.05 980.891H255.299C255.96 980.891 256.562 980.688 257.105 980.281C257.326 980.103 257.561 979.957 257.81 979.843C258.222 979.632 258.758 979.559 259.419 979.624C263.737 980.03 267.93 979.632 271.998 978.43C284.909 977.553 297.819 969.149 309.011 962.401C351.194 936.856 391.864 908.623 431.021 877.702C473.644 844.053 504.165 818.727 522.583 801.724C543.513 782.431 564.34 763.016 585.064 743.479C594.068 734.986 603.02 726.419 611.921 717.779C662.989 668.134 711.745 612.862 751.005 551.28C767.396 525.572 778.764 499.385 785.109 472.719C793.217 438.567 780.373 413.33 760.677 389.019C749.999 375.832 738.66 363.368 726.66 351.626C667.153 293.406 596.278 245.637 533.819 205.443C533.996 204.809 533.966 204.306 533.731 203.932C533.526 203.64 533.452 203.307 533.511 202.934C533.673 201.862 533.628 200.652 533.379 199.304C533.372 199.272 533.372 199.239 533.377 199.207C533.383 199.174 533.394 199.144 533.411 199.116C533.427 199.089 533.448 199.066 533.473 199.048C533.498 199.03 533.526 199.018 533.555 199.012C536.904 198.232 538.6 198.541 538.644 199.937C540.348 200.896 541.986 201.967 543.557 203.153C543.954 203.429 544.255 203.34 544.461 202.885C544.549 202.69 544.666 202.479 544.813 202.252C544.89 202.13 544.864 201.827 544.739 201.392C544.615 200.957 544.4 200.418 544.13 199.864C543.822 199.182 543.33 198.841 542.654 198.841C541.641 198.825 541.523 198.451 542.301 197.721C543.109 196.974 544.02 196.852 545.033 197.355C545.44 197.558 545.84 197.761 546.208 197.953C546.577 198.145 546.908 198.322 547.182 198.473C547.457 198.625 547.669 198.748 547.807 198.837C547.944 198.925 548.005 198.976 547.986 198.987C548.235 201.131 549.418 201.919 551.533 201.35C553.001 200.944 553.846 200.075 554.066 198.744C554.184 198.045 554.5 197.485 555.014 197.063C559.244 193.628 561.403 187.831 563.936 184.591C566.022 181.927 568.166 179.329 570.37 176.796C573.079 173.629 575.767 168.562 579.579 165.346C580.107 164.892 580.533 164.34 580.856 163.69L581.429 162.448C581.723 161.863 582.156 161.473 582.729 161.278C585.329 160.385 587.01 158.388 587.774 155.286C587.965 154.506 588.406 153.978 589.096 153.702C590.903 152.988 592.239 151.721 593.106 149.902C593.4 149.285 593.781 148.741 594.251 148.27L596.763 145.737C596.944 145.551 597.09 145.327 597.192 145.076C597.294 144.825 597.351 144.553 597.358 144.275C597.387 143.008 597.755 141.912 598.46 140.987C598.959 140.321 599.216 139.549 599.231 138.672C599.231 137.097 599.59 135.579 600.31 134.117C600.663 133.386 600.758 132.615 600.596 131.803C599.818 127.824 598.526 124.341 596.719 121.352C596.587 121.141 596.403 121.011 596.168 120.963C595.992 120.93 595.977 120.849 596.124 120.719C596.785 120.086 597.123 119.306 597.138 118.381C597.152 117.666 597.387 117.049 597.843 116.529L600.046 113.947C600.707 113.168 600.655 112.453 599.891 111.803L592.952 105.787C592.584 105.478 592.173 105.275 591.718 105.178C590.91 105.031 590.543 104.252 590.616 102.839C590.66 102.336 590.477 102.206 590.066 102.449C589.14 103.034 588.413 102.701 587.884 101.45C587.752 101.158 587.679 100.858 587.664 100.549C587.62 99.8671 587.774 99.8021 588.127 100.354C588.274 100.565 588.428 100.777 588.59 100.988C588.883 101.345 589.221 101.418 589.603 101.207C589.955 101.012 590.146 100.72 590.176 100.33C590.234 99.7615 590.462 99.2987 590.859 98.9414C591.946 97.967 592.966 97.9508 593.921 98.8927C594.009 98.9901 593.994 99.047 593.877 99.0632C593.598 99.1119 593.414 99.3231 593.326 99.6966C593.283 99.8822 593.288 100.078 593.342 100.26C593.396 100.442 593.497 100.603 593.632 100.724C593.766 100.845 593.93 100.92 594.102 100.941C594.275 100.962 594.449 100.927 594.604 100.841C596.176 99.997 597.6 100.143 598.878 101.28C600.494 102.725 601.382 103.497 601.544 103.594C606.024 106.258 610.746 108.06 615.71 109.002Z" fill="white"/>
<path d="M45.2447 521.539C52.5702 580.982 58.6822 619.887 70.0235 676.017C71.5828 683.748 73.7966 692.608 76.665 702.596C80.0409 714.314 82.8873 726.349 86.528 737.75C93.5005 759.627 100.164 784.793 106.784 803.454C119.39 838.974 135.792 872.301 155.988 903.436C184.827 947.896 219.116 982.734 271.652 978.422C267.578 979.623 263.378 980.021 259.053 979.615C258.391 979.55 257.854 979.623 257.443 979.835C257.192 979.948 256.957 980.094 256.736 980.273C256.192 980.679 255.589 980.882 254.927 980.882H247.668C246.579 980.882 246.55 981.085 247.58 981.491L248.286 981.784C248.356 981.812 248.419 981.861 248.467 981.925C248.515 981.99 248.546 982.067 248.557 982.149C248.568 982.232 248.559 982.316 248.531 982.393C248.503 982.47 248.456 982.537 248.396 982.587C246.822 983.854 246.197 985.413 246.52 987.265C247.138 990.773 247.226 993.826 246.785 996.425C246.715 996.85 246.57 997.254 246.357 997.614C246.145 997.974 245.87 998.282 245.55 998.52C243.284 1000.18 241.342 1002.19 239.724 1004.56C239.574 1004.78 239.38 1004.96 239.157 1005.07C238.934 1005.19 238.69 1005.25 238.445 1005.24C238.195 1005.24 237.959 1005.26 237.739 1005.29C237.65 1005.29 237.606 1005.34 237.606 1005.44C237.606 1007.18 236.974 1008.45 235.709 1009.26C234.973 1009.73 234.348 1010.34 233.833 1011.07L231.053 1014.94C230.567 1015.61 230.17 1016.33 229.861 1017.11L227.39 1023.15C227.236 1023.51 227.019 1023.84 226.75 1024.1C226.481 1024.37 226.166 1024.58 225.824 1024.71C222.381 1026.02 219.587 1028.36 217.439 1031.7C216.424 1033.29 215.115 1034.04 213.511 1033.94C212.791 1033.89 212.21 1034.19 211.768 1034.82C209.665 1037.89 207.517 1040.89 205.325 1043.83C203.251 1046.59 202.523 1049.41 201.376 1052.65C201.203 1053.13 200.895 1053.54 200.493 1053.82C198.978 1054.93 198.257 1056.7 198.331 1059.16C198.522 1065.93 198.485 1075.88 198.22 1089H108.747C109.909 1088.42 110.983 1088.07 111.969 1087.98C112.185 1087.96 112.394 1087.88 112.568 1087.74C112.743 1087.6 112.877 1087.4 112.954 1087.18C113.031 1086.95 113.048 1086.71 113.002 1086.48C112.956 1086.24 112.851 1086.03 112.697 1085.86C106.32 1078.57 99.6346 1071.92 94.1845 1064.2C69.6043 1029.33 48.0763 992.267 29.6007 953.012C20.7527 934.18 11.7281 916.347 3.98338 896.298C0.210281 886.577 -4.46747 877.052 -7.7772 867.575C-18.3242 837.464 -30.6143 809.959 -39.0873 777.436C-45.4861 752.903 -55.3491 727.421 -61.0418 702.864C-65.749 682.595 -70.6032 662.318 -75.6046 642.032L-73.707 644.347C-72.8833 645.354 -72.4714 645.183 -72.4714 643.835V642.398C-72.4714 641.505 -72.0742 641.147 -71.2799 641.326C-70.4856 641.521 -69.7206 641.423 -68.9852 641.034C-68.3968 640.741 -67.8745 640.847 -67.4185 641.35C-67.0361 641.773 -66.5874 641.967 -66.0726 641.935C-65.4253 641.886 -64.8517 642.081 -64.3515 642.52L-61.9244 644.663C-61.2183 645.297 -60.5196 645.289 -59.8282 644.639C-58.3131 643.194 -57.9086 641.529 -58.6147 639.645C-58.7471 639.271 -58.6367 639.133 -58.2837 639.231C-58.0925 639.28 -57.9601 639.466 -57.8865 639.791C-57.8277 640.132 -57.6438 640.343 -57.3349 640.425C-57.026 640.506 -56.7392 640.473 -56.4744 640.327C-56.3324 640.253 -56.2114 640.138 -56.1244 639.994C-56.0375 639.85 -55.9879 639.682 -55.9811 639.509C-55.9743 639.336 -56.0105 639.164 -56.0857 639.012C-56.161 638.86 -56.2725 638.733 -56.4082 638.646C-56.9525 638.289 -57.1657 637.769 -57.0481 637.087C-56.901 636.242 -56.4376 635.731 -55.658 635.552C-55.0107 635.422 -54.7239 634.943 -54.7974 634.115C-54.871 633.368 -54.6136 632.816 -54.0252 632.458C-50.2962 630.193 -45.9274 625.637 -41.4041 625.15C-41.0075 625.112 -40.6247 624.971 -40.2871 624.738C-39.9496 624.505 -39.6669 624.187 -39.4624 623.81C-38.8887 622.77 -38.4768 621.666 -38.2267 620.497C-38.1487 620.128 -37.9761 619.791 -37.7296 619.528C-37.4831 619.264 -37.1731 619.085 -36.8366 619.01C-35.248 618.669 -34.4316 617.622 -34.3874 615.868C-34.3734 615.497 -34.2517 615.141 -34.0406 614.855C-33.8295 614.57 -33.5407 614.369 -33.218 614.284C-30.835 613.7 -29.3861 613.001 -28.8712 612.189C-26.7383 608.778 -25.2232 605.1 -24.3259 601.153C-23.6198 598.059 -25.1643 594.502 -25.6939 591.262C-25.8115 590.515 -25.716 589.801 -25.407 589.118C-24.7745 587.705 -24.4656 586.211 -24.4803 584.636C-24.4803 583.694 -24.1126 582.979 -23.3771 582.492C-21.7149 581.404 -20.7808 579.828 -20.5748 577.766C-20.5013 576.937 -20.2218 576.207 -19.7364 575.573C-16.8679 571.773 -11.462 567.948 -10.3588 563.27C-10.1676 562.507 -9.79247 561.882 -9.23349 561.395C-8.23322 560.55 -7.36531 559.511 -6.62982 558.276C-6.33562 557.773 -5.94581 557.367 -5.46038 557.058L-0.937111 554.159C-0.231033 553.704 0.526558 553.388 1.3356 553.209L17.4429 549.652C18.0902 549.506 18.4874 549.084 18.6344 548.385C18.7374 547.898 19.1493 547.33 19.8701 546.68C20.3702 546.225 20.738 545.665 20.9733 544.999L22.6503 540.297C22.7827 539.924 22.9077 539.924 23.0253 540.297C23.0989 540.508 23.1871 540.719 23.2901 540.931C23.3489 541.077 23.4519 541.142 23.599 541.125C24.364 541.109 24.9009 540.606 25.2098 539.615C24.9156 539.079 24.9965 539.282 25.4525 540.224C25.5066 540.329 25.5847 540.418 25.6786 540.48C25.7725 540.543 25.8789 540.577 25.9869 540.58C26.0948 540.582 26.2003 540.553 26.2926 540.494C26.3848 540.436 26.4604 540.351 26.5116 540.248C27.0559 539.177 27.5192 538.064 27.9016 536.911C28.137 536.18 28.4092 535.465 28.7181 534.767C30.1597 531.486 32.3441 529.091 35.2714 527.58C35.4371 527.5 35.5721 527.358 35.6527 527.179C35.7333 527 35.7544 526.796 35.7124 526.601C35.6703 526.407 35.5678 526.235 35.4227 526.116C35.2775 525.996 35.099 525.937 34.9183 525.948C34.7124 525.948 34.4917 525.94 34.2563 525.924C33.462 525.875 33.0575 525.818 33.0428 525.753C32.984 525.526 32.984 525.298 33.0428 525.071C33.1458 524.714 33.3591 524.486 33.6827 524.389C35.2861 523.95 36.1319 522.862 36.2201 521.124C36.2643 520.361 36.4261 519.63 36.7056 518.932L40.1477 510.088C40.1664 510.027 40.2037 509.978 40.2531 509.947C40.3026 509.917 40.3611 509.909 40.4186 509.923C40.4761 509.938 40.5289 509.974 40.5681 510.027C40.6072 510.079 40.6302 510.144 40.6331 510.21V511.014C40.6331 511.745 40.8537 511.834 41.295 511.282C41.5598 510.925 41.7437 510.535 41.8467 510.113C41.9349 509.755 42.1336 509.642 42.4425 509.772C42.9132 509.967 42.9499 510.178 42.5528 510.405C42.4506 510.462 42.3648 510.549 42.3049 510.657C42.2449 510.764 42.2132 510.888 42.2132 511.014C42.2132 511.14 42.2449 511.264 42.3049 511.372C42.3648 511.479 42.4506 511.566 42.5528 511.623C42.7293 511.721 42.9131 511.818 43.1044 511.916C43.2221 511.98 43.2662 512.094 43.2368 512.257C42.516 515.911 43.1853 519.005 45.2447 521.539Z" fill="white"/>
</svg>
